<?xml version="1.0" encoding="utf-8"?>
<!-- Generator: Adobe Illustrator 23.0.6, SVG Export Plug-In . SVG Version: 6.00 Build 0)  -->
<svg version="1.1" id="Ebene_1" xmlns="http://www.w3.org/2000/svg" xmlns:xlink="http://www.w3.org/1999/xlink" x="0px" y="0px"
	 viewBox="0 0 1024 271" style="enable-background:new 0 0 1024 271;" xml:space="preserve">
<style type="text/css">
	.st0{fill:#E40044;}
	.st1{enable-background:new    ;}
	.st2{fill:#005799;}
</style>
<g>
	<path class="st0" d="M875.3,165.47c-12.5,1.37-33.39,12.36-50.32,40.45c-6.39,10.61-13.11,22.31-15.31,27.57
		c-2.8,6.68-5.49,15.73-7.72,19.73c-2.23,4.01-4.7,6.66-5.58,2.18c-0.91-4.61,0.33-11.21,0.66-14.94c0.18-2.02-1.03-2.89-1.5-0.46
		c-0.68,3.5-2.54,8.51-4.99,13.16c-2.04,3.87-3.6,5.93-4.99,7.28c-2.1,2.04-2.94,1.52-2.66-1.26c0.29-2.77,3.56-17.38,3.87-21.16
		c0.3-3.79,0.09-5.56-1.88-2.81c-1.98,2.73-4.96,7.99-8.62,10.45c-3.65,2.46-2.92,1.97-4.86,2.69c-1.95,0.73-0.7-1.52,0.54-3.78
		c1.25-2.25,4.98-9.01,5.99-12.28c1.02-3.27,1.36-8.87-1.1-6.09c-3.23,3.63-6.08,5.31-8.75,6.53c-2.68,1.21-2.68-0.92-1.44-2.67
		c1.24-1.74,7.92-11.99,8.93-14.75c1.02-2.76,0.8-4.02-2.37-2.07c-3.17,1.97-5.4,3.11-7.1,4.09c-1.71,0.99-2.96,0.13-1.38-1.72
		c1.95-2.26,7.39-9.48,12.19-22.8c6.41-17.81,17.59-30.48,27.56-36.71c8.06-5.03,18.23-7.09,24.37-7.28c0,0,0.02,2.08,0.65,3.7
		c0.92,2.35,2.24,2.82,2.24,2.82s1.51-2.37,3.61-2.65c2.54-0.34,4.97,0.8,7.19,2.28c1.31,0.87,10.01,6.65,21.43,9.11
		C870.71,165.53,875.3,165.47,875.3,165.47L875.3,165.47L875.3,165.47z"/>
	<path class="st0" d="M877.22,165.38c-13.38-2.59-17.38-3.53-23.83-6.85c-4.42-2.26-10.72-6.37-12.87-7.19
		c-3.99-1.52-6.83-1.2-6.83-1.2l-1.64,1.35c0,0-0.38-1.65-0.06-3.46c0.26-1.45,1.5-3.9,4.29-5c-0.01,0.32,0.8-6.07,6.58-8.31
		c5.78-2.24,14.44-3.87,19.06-7.07c7.05-4.9,10.18-13.9,10-22.09c-0.15-6.74-1.93-15.15-3.81-20.27c-1.89-5.1-1.47-7.51,2.1-11.79
		c3.58-4.28,21.41-14.11,33.49-22.99c12.07-8.88,27.56-21.16,31.93-25.68c2.42-2.52,6.76-7.22,8.47-8.96
		c1.72-1.74,3.11-1.64,1.89,1.18C943,23.94,933.45,32.27,931.72,34c-2.22,2.2-0.89,3.87,1.29,2.39c2.2-1.48,21.87-17.52,27.27-21.74
		c4.65-3.64,6.46-5.43,7.7-6.04c1.85-0.92,2.75,0.23,1.5,1.8c-2.56,3.21-11.31,12.56-17.5,17.01c-4.25,3.06-6.55,4.88-6.16,5.69
		c0.2,0.4,1.44,0.02,3.29-0.83c6.07-2.81,16.69-10.2,22.41-13.74c7.52-4.66,12.65-7.66,15.52-8.68c2.78-0.98,4.05-1.46,4.76-0.7
		c0.72,0.78-2.54,4.34-4.34,6c-4.02,3.74-10.75,8.44-15.72,11.24c-4.98,2.79-10.74,5.7-12.38,6.69c-1.86,1.14-0.56,2.66,1.38,1.93
		c1.95-0.73,12.05-5.32,18.48-8.13s13.85-6.7,15.68-7.55c1.84-0.85,2.89,0.9,1.53,2.53c-1.36,1.62-9.77,7.15-14.62,9.73
		c-4.28,2.27-10.21,4.47-11.56,5.08c-1.34,0.61-0.39,1.52,1.56,1.3c1.26-0.15,9.78-2.35,13.69-3.25c3.92-0.89,5.9-0.96,8.04-1.03
		c3.56-0.11,3.22,1.75,0.87,2.79c-3.32,1.5-10.44,4.28-16.68,8c-7.43,4.44-19.49,15.17-25.78,21.63c-3.46,3.55-8.1,7-9.34,9.01
		c-1.24,2-1.02,3.52-1.18,5.42c-0.15,1.89-0.09,12.89-2.14,20.56c-2.06,7.67-6.82,17.21-8.69,21.09c-1.86,3.89-3.85,9.81-3.78,12.01
		c0.05,1.54,0.37,5.44,4.89,6.17c1.55,0.26,10.71,0.99,15.77,0.91c20.04-0.31,51.99-2.29,60.7-2.41c2.74-0.05,5.69-0.48,5.98,0.21
		c0.32,0.77-1.27,1.53-2.5,2.09c-3.34,1.53-18.17,9.56-22.4,15.33c6.7,7.42,14.79,12.48,16.21,14.03c1.43,1.54,2.24,3.1,0.08,2.56
		c-2.16-0.55-22.4-4.54-31.29-5.59c-9.66-1.15-26.8-4.79-42.76-4.91C923.44,162.56,883.89,166.67,877.22,165.38L877.22,165.38
		L877.22,165.38z"/>
</g>
<g class="st1">
	<path class="st2" d="M45.31,126.95c0,0.43-0.02,0.8-0.07,1.13c-0.05,0.33-0.11,0.6-0.2,0.81c-0.09,0.21-0.2,0.37-0.34,0.46
		s-0.28,0.13-0.44,0.13c-0.27,0-0.72-0.21-1.35-0.64c-0.63-0.43-1.48-0.9-2.53-1.42c-1.06-0.52-2.33-0.99-3.8-1.42
		c-1.48-0.43-3.23-0.64-5.25-0.64c-2.41,0-4.57,0.44-6.48,1.32c-1.91,0.88-3.54,2.09-4.86,3.65s-2.35,3.4-3.06,5.54
		c-0.71,2.14-1.06,4.46-1.06,6.96c0,2.79,0.39,5.27,1.17,7.43c0.78,2.16,1.85,3.99,3.23,5.47c1.37,1.49,3.01,2.61,4.91,3.38
		c1.9,0.77,3.99,1.15,6.27,1.15c1.35,0,2.72-0.16,4.1-0.49c1.38-0.33,2.67-0.82,3.87-1.47v-12.73H29.27c-0.38,0-0.67-0.19-0.86-0.57
		c-0.19-0.38-0.29-0.98-0.29-1.79c0-0.43,0.02-0.79,0.07-1.1c0.04-0.3,0.12-0.55,0.22-0.74c0.1-0.19,0.22-0.33,0.35-0.42
		c0.14-0.09,0.3-0.13,0.51-0.13h13.88c0.25,0,0.5,0.04,0.74,0.13c0.25,0.09,0.47,0.23,0.68,0.41c0.2,0.18,0.36,0.43,0.47,0.74
		c0.11,0.32,0.17,0.68,0.17,1.08v16.65c0,0.59-0.1,1.09-0.3,1.52c-0.2,0.43-0.63,0.81-1.28,1.13c-0.65,0.33-1.5,0.68-2.53,1.06
		c-1.04,0.38-2.11,0.71-3.21,0.98c-1.1,0.27-2.22,0.47-3.34,0.61c-1.13,0.13-2.24,0.2-3.34,0.2c-3.38,0-6.4-0.52-9.05-1.57
		s-4.9-2.54-6.74-4.48c-1.84-1.94-3.24-4.26-4.21-6.96c-0.97-2.7-1.45-5.72-1.45-9.05c0-3.47,0.52-6.61,1.57-9.42
		c1.05-2.81,2.52-5.21,4.42-7.2c1.9-1.98,4.19-3.52,6.86-4.61c2.67-1.09,5.62-1.64,8.87-1.64c1.67,0,3.23,0.15,4.69,0.44
		c1.46,0.29,2.76,0.64,3.9,1.03c1.14,0.39,2.09,0.82,2.87,1.28s1.31,0.84,1.6,1.13c0.29,0.29,0.5,0.63,0.61,1.01
		C45.25,125.67,45.31,126.23,45.31,126.95z"/>
</g>
<g class="st1">
	<path class="st2" d="M81.42,147.35c0,0.88-0.22,1.5-0.66,1.87c-0.44,0.37-0.94,0.56-1.51,0.56H59.23c0,1.69,0.17,3.21,0.51,4.56
		c0.34,1.35,0.91,2.51,1.7,3.48c0.79,0.97,1.82,1.71,3.09,2.23c1.27,0.52,2.82,0.78,4.65,0.78c1.45,0,2.74-0.12,3.87-0.35
		s2.11-0.5,2.94-0.79c0.83-0.29,1.5-0.56,2.04-0.79c0.53-0.24,0.93-0.36,1.21-0.36c0.16,0,0.3,0.04,0.42,0.12
		c0.12,0.08,0.22,0.2,0.29,0.36c0.07,0.16,0.12,0.38,0.15,0.66c0.03,0.28,0.05,0.62,0.05,1.03c0,0.29-0.01,0.55-0.03,0.76
		c-0.02,0.21-0.05,0.41-0.08,0.57s-0.09,0.32-0.17,0.46c-0.08,0.14-0.18,0.27-0.3,0.39c-0.12,0.12-0.49,0.33-1.1,0.61
		c-0.61,0.28-1.4,0.56-2.36,0.83c-0.97,0.27-2.09,0.51-3.36,0.73c-1.27,0.21-2.63,0.32-4.07,0.32c-2.5,0-4.69-0.35-6.57-1.05
		c-1.88-0.7-3.46-1.73-4.75-3.11c-1.28-1.37-2.25-3.1-2.91-5.17c-0.65-2.07-0.98-4.48-0.98-7.23c0-2.61,0.34-4.96,1.01-7.04
		c0.68-2.08,1.65-3.85,2.92-5.3c1.27-1.45,2.81-2.57,4.61-3.34c1.8-0.78,3.82-1.17,6.05-1.17c2.39,0,4.42,0.38,6.1,1.15
		c1.68,0.77,3.06,1.8,4.14,3.09c1.08,1.29,1.88,2.81,2.38,4.56c0.51,1.75,0.76,3.61,0.76,5.59V147.35z M75.81,145.69
		c0.07-2.93-0.58-5.22-1.95-6.89c-1.37-1.67-3.4-2.5-6.1-2.5c-1.38,0-2.59,0.26-3.64,0.78c-1.04,0.52-1.91,1.21-2.62,2.06
		c-0.7,0.86-1.25,1.85-1.63,2.99c-0.39,1.14-0.6,2.33-0.65,3.56H75.81z"/>
</g>
<g class="st1">
	<path class="st2" d="M129.03,133.4c0,0.16-0.02,0.35-0.07,0.57c-0.05,0.23-0.12,0.51-0.24,0.84l-8.95,28.88
		c-0.07,0.25-0.17,0.45-0.32,0.61c-0.15,0.16-0.35,0.28-0.61,0.37c-0.26,0.09-0.61,0.15-1.06,0.19c-0.45,0.03-1.01,0.05-1.69,0.05
		c-0.7,0-1.28-0.02-1.76-0.07c-0.47-0.04-0.85-0.11-1.13-0.2c-0.28-0.09-0.49-0.21-0.62-0.37c-0.14-0.16-0.24-0.35-0.3-0.57
		l-6.38-22.06l-0.07-0.3l-0.07,0.3l-5.91,22.06c-0.07,0.25-0.17,0.45-0.32,0.61c-0.15,0.16-0.37,0.28-0.66,0.37
		c-0.29,0.09-0.67,0.15-1.13,0.19c-0.46,0.03-1.03,0.05-1.71,0.05c-0.7,0-1.27-0.02-1.71-0.07s-0.8-0.11-1.08-0.2
		s-0.49-0.21-0.62-0.37c-0.14-0.16-0.24-0.35-0.3-0.57l-8.88-28.88c-0.11-0.34-0.19-0.62-0.24-0.84c-0.05-0.22-0.07-0.42-0.07-0.57
		c0-0.2,0.04-0.37,0.14-0.49c0.09-0.12,0.24-0.23,0.46-0.3c0.21-0.08,0.5-0.13,0.86-0.15c0.36-0.02,0.8-0.03,1.32-0.03
		c0.63,0,1.14,0.02,1.52,0.05c0.38,0.03,0.68,0.09,0.88,0.17s0.35,0.19,0.44,0.34s0.17,0.32,0.24,0.52l7.33,25.06l0.07,0.3l0.07-0.3
		l6.72-25.06c0.04-0.2,0.12-0.38,0.22-0.52c0.1-0.15,0.25-0.26,0.46-0.34s0.48-0.14,0.83-0.17c0.35-0.03,0.8-0.05,1.37-0.05
		c0.54,0,0.98,0.02,1.33,0.05c0.35,0.03,0.62,0.09,0.83,0.17s0.35,0.19,0.44,0.32c0.09,0.14,0.16,0.29,0.2,0.47l7.26,25.13l0.07,0.3
		l0.03-0.3l7.23-25.06c0.04-0.2,0.12-0.38,0.22-0.52c0.1-0.15,0.26-0.26,0.47-0.34c0.21-0.08,0.51-0.14,0.88-0.17
		c0.37-0.03,0.85-0.05,1.44-0.05c0.54,0,0.97,0.01,1.3,0.03c0.33,0.02,0.59,0.08,0.78,0.17c0.19,0.09,0.33,0.19,0.41,0.3
		C128.99,133.04,129.03,133.2,129.03,133.4z"/>
	<path class="st2" d="M161.29,147.35c0,0.88-0.22,1.5-0.66,1.87c-0.44,0.37-0.94,0.56-1.51,0.56H139.1c0,1.69,0.17,3.21,0.51,4.56
		c0.34,1.35,0.91,2.51,1.7,3.48c0.79,0.97,1.82,1.71,3.09,2.23c1.27,0.52,2.82,0.78,4.65,0.78c1.45,0,2.74-0.12,3.87-0.35
		s2.11-0.5,2.94-0.79c0.83-0.29,1.5-0.56,2.04-0.79c0.53-0.24,0.93-0.36,1.21-0.36c0.16,0,0.3,0.04,0.42,0.12
		c0.12,0.08,0.22,0.2,0.29,0.36c0.07,0.16,0.12,0.38,0.15,0.66c0.03,0.28,0.05,0.62,0.05,1.03c0,0.29-0.01,0.55-0.03,0.76
		c-0.02,0.21-0.05,0.41-0.08,0.57s-0.09,0.32-0.17,0.46c-0.08,0.14-0.18,0.27-0.3,0.39c-0.12,0.12-0.49,0.33-1.1,0.61
		c-0.61,0.28-1.4,0.56-2.36,0.83c-0.97,0.27-2.09,0.51-3.36,0.73c-1.27,0.21-2.63,0.32-4.07,0.32c-2.5,0-4.69-0.35-6.57-1.05
		c-1.88-0.7-3.46-1.73-4.75-3.11c-1.28-1.37-2.25-3.1-2.91-5.17c-0.65-2.07-0.98-4.48-0.98-7.23c0-2.61,0.34-4.96,1.01-7.04
		c0.68-2.08,1.65-3.85,2.92-5.3c1.27-1.45,2.81-2.57,4.61-3.34c1.8-0.78,3.82-1.17,6.05-1.17c2.39,0,4.42,0.38,6.1,1.15
		c1.68,0.77,3.06,1.8,4.14,3.09c1.08,1.29,1.88,2.81,2.38,4.56c0.51,1.75,0.76,3.61,0.76,5.59V147.35z M155.68,145.69
		c0.07-2.93-0.58-5.22-1.95-6.89c-1.37-1.67-3.4-2.5-6.1-2.5c-1.38,0-2.59,0.26-3.64,0.78c-1.04,0.52-1.91,1.21-2.62,2.06
		c-0.7,0.86-1.25,1.85-1.63,2.99c-0.39,1.14-0.6,2.33-0.65,3.56H155.68z"/>
</g>
<g class="st1">
	<path class="st2" d="M188.14,135.46c0,0.5-0.01,0.91-0.03,1.25s-0.07,0.6-0.14,0.79c-0.07,0.19-0.15,0.34-0.25,0.44
		c-0.1,0.1-0.24,0.15-0.42,0.15c-0.18,0-0.4-0.05-0.66-0.15c-0.26-0.1-0.55-0.2-0.88-0.3c-0.33-0.1-0.69-0.2-1.1-0.29
		s-0.84-0.14-1.32-0.14c-0.56,0-1.11,0.11-1.65,0.34c-0.54,0.23-1.11,0.6-1.71,1.12s-1.22,1.21-1.87,2.06
		c-0.65,0.86-1.37,1.9-2.16,3.14v20c0,0.18-0.05,0.33-0.14,0.46c-0.09,0.12-0.24,0.23-0.44,0.32s-0.48,0.16-0.84,0.2
		s-0.82,0.07-1.38,0.07c-0.54,0-0.99-0.02-1.35-0.07c-0.36-0.04-0.65-0.11-0.86-0.2c-0.21-0.09-0.36-0.2-0.44-0.32
		c-0.08-0.12-0.12-0.28-0.12-0.46v-30.4c0-0.18,0.03-0.33,0.1-0.46c0.07-0.12,0.2-0.24,0.41-0.34c0.2-0.1,0.46-0.17,0.78-0.2
		c0.31-0.03,0.73-0.05,1.25-0.05c0.5,0,0.91,0.02,1.23,0.05c0.33,0.03,0.58,0.1,0.76,0.2c0.18,0.1,0.31,0.21,0.39,0.34
		c0.08,0.12,0.12,0.28,0.12,0.46v4.42c0.83-1.22,1.62-2.21,2.35-2.97c0.73-0.77,1.42-1.37,2.08-1.81c0.65-0.44,1.3-0.74,1.94-0.91
		c0.64-0.17,1.29-0.25,1.94-0.25c0.29,0,0.62,0.02,1,0.05c0.37,0.03,0.76,0.1,1.17,0.19c0.41,0.09,0.77,0.19,1.1,0.3
		c0.33,0.11,0.56,0.23,0.69,0.34c0.14,0.11,0.22,0.22,0.27,0.32c0.04,0.1,0.08,0.23,0.12,0.39c0.03,0.16,0.06,0.39,0.07,0.69
		C188.14,134.53,188.14,134.94,188.14,135.46z"/>
</g>
<g class="st1">
	<path class="st2" d="M219.69,148.26c0,2.63-0.29,5-0.86,7.11c-0.57,2.11-1.42,3.9-2.53,5.39s-2.48,2.62-4.1,3.41
		c-1.62,0.79-3.48,1.18-5.57,1.18c-0.97,0-1.86-0.1-2.69-0.29c-0.82-0.19-1.63-0.5-2.42-0.93c-0.79-0.43-1.58-0.97-2.36-1.62
		c-0.79-0.65-1.62-1.44-2.5-2.36v3.71c0,0.18-0.05,0.34-0.14,0.47c-0.09,0.13-0.24,0.24-0.44,0.32c-0.2,0.08-0.46,0.14-0.76,0.19
		c-0.3,0.04-0.69,0.07-1.17,0.07c-0.45,0-0.83-0.02-1.15-0.07c-0.32-0.04-0.57-0.11-0.78-0.19c-0.2-0.08-0.34-0.19-0.41-0.32
		c-0.07-0.14-0.1-0.29-0.1-0.47v-45.13c0-0.18,0.04-0.34,0.12-0.47c0.08-0.14,0.22-0.25,0.44-0.34c0.21-0.09,0.5-0.16,0.86-0.2
		c0.36-0.04,0.81-0.07,1.35-0.07c0.56,0,1.02,0.02,1.38,0.07c0.36,0.05,0.64,0.11,0.84,0.2s0.35,0.2,0.44,0.34
		c0.09,0.13,0.14,0.29,0.14,0.47v18.21c0.9-0.92,1.77-1.7,2.62-2.33c0.84-0.63,1.67-1.14,2.48-1.54c0.81-0.39,1.62-0.68,2.43-0.86
		c0.81-0.18,1.67-0.27,2.57-0.27c2.21,0,4.09,0.44,5.66,1.32c1.56,0.88,2.84,2.05,3.82,3.53c0.98,1.48,1.69,3.2,2.15,5.18
		C219.47,143.96,219.69,146.05,219.69,148.26z M213.92,148.9c0-1.55-0.12-3.06-0.36-4.53c-0.24-1.46-0.65-2.76-1.24-3.88
		c-0.59-1.13-1.37-2.03-2.35-2.72c-0.97-0.69-2.19-1.03-3.64-1.03c-0.73,0-1.44,0.1-2.14,0.3c-0.7,0.2-1.42,0.54-2.14,1.01
		s-1.48,1.08-2.26,1.82c-0.78,0.74-1.61,1.68-2.5,2.8v12.13c1.54,1.87,3.01,3.29,4.42,4.27c1.4,0.98,2.87,1.47,4.38,1.47
		c1.4,0,2.6-0.34,3.6-1.01c1-0.68,1.81-1.57,2.43-2.69c0.62-1.11,1.08-2.36,1.36-3.75S213.92,150.32,213.92,148.9z"/>
	<path class="st2" d="M254.01,147.35c0,0.88-0.22,1.5-0.66,1.87c-0.44,0.37-0.94,0.56-1.51,0.56h-20.02c0,1.69,0.17,3.21,0.51,4.56
		c0.34,1.35,0.91,2.51,1.7,3.48c0.79,0.97,1.82,1.71,3.09,2.23c1.27,0.52,2.82,0.78,4.65,0.78c1.45,0,2.74-0.12,3.87-0.35
		s2.11-0.5,2.94-0.79c0.83-0.29,1.5-0.56,2.04-0.79c0.53-0.24,0.93-0.36,1.21-0.36c0.16,0,0.3,0.04,0.42,0.12
		c0.12,0.08,0.22,0.2,0.29,0.36c0.07,0.16,0.12,0.38,0.15,0.66c0.03,0.28,0.05,0.62,0.05,1.03c0,0.29-0.01,0.55-0.03,0.76
		c-0.02,0.21-0.05,0.41-0.08,0.57s-0.09,0.32-0.17,0.46c-0.08,0.14-0.18,0.27-0.3,0.39c-0.12,0.12-0.49,0.33-1.1,0.61
		c-0.61,0.28-1.4,0.56-2.36,0.83c-0.97,0.27-2.09,0.51-3.36,0.73c-1.27,0.21-2.63,0.32-4.07,0.32c-2.5,0-4.69-0.35-6.57-1.05
		c-1.88-0.7-3.46-1.73-4.75-3.11c-1.28-1.37-2.25-3.1-2.91-5.17c-0.65-2.07-0.98-4.48-0.98-7.23c0-2.61,0.34-4.96,1.01-7.04
		c0.68-2.08,1.65-3.85,2.92-5.3c1.27-1.45,2.81-2.57,4.61-3.34c1.8-0.78,3.82-1.17,6.05-1.17c2.39,0,4.42,0.38,6.1,1.15
		c1.68,0.77,3.06,1.8,4.14,3.09c1.08,1.29,1.88,2.81,2.38,4.56c0.51,1.75,0.76,3.61,0.76,5.59V147.35z M248.41,145.69
		c0.07-2.93-0.58-5.22-1.95-6.89c-1.37-1.67-3.4-2.5-6.1-2.5c-1.38,0-2.59,0.26-3.64,0.78c-1.04,0.52-1.91,1.21-2.62,2.06
		c-0.7,0.86-1.25,1.85-1.63,2.99c-0.39,1.14-0.6,2.33-0.65,3.56H248.41z"/>
</g>
<g class="st1">
	<path class="st2" d="M310.12,162.65c0.18,0.5,0.28,0.9,0.29,1.2s-0.07,0.54-0.25,0.69c-0.18,0.16-0.48,0.26-0.9,0.3
		s-0.97,0.07-1.67,0.07c-0.7,0-1.26-0.02-1.67-0.05c-0.42-0.03-0.73-0.09-0.95-0.17c-0.21-0.08-0.37-0.19-0.47-0.32
		c-0.1-0.13-0.2-0.3-0.29-0.51l-3.75-10.64h-18.17l-3.58,10.5c-0.07,0.2-0.16,0.38-0.27,0.52c-0.11,0.15-0.28,0.27-0.49,0.37
		c-0.21,0.1-0.52,0.17-0.91,0.22c-0.39,0.04-0.91,0.07-1.54,0.07c-0.65,0-1.19-0.03-1.6-0.08c-0.42-0.06-0.71-0.16-0.88-0.32
		c-0.17-0.16-0.25-0.39-0.24-0.69c0.01-0.3,0.11-0.7,0.29-1.2l14.66-40.6c0.09-0.25,0.21-0.45,0.35-0.61
		c0.15-0.16,0.36-0.28,0.64-0.37c0.28-0.09,0.64-0.15,1.08-0.19c0.44-0.03,1-0.05,1.67-0.05c0.72,0,1.32,0.02,1.79,0.05
		c0.47,0.03,0.86,0.1,1.15,0.19c0.29,0.09,0.52,0.22,0.68,0.39c0.16,0.17,0.28,0.38,0.37,0.62L310.12,162.65z M291.31,126.81h-0.03
		l-7.53,21.79h15.2L291.31,126.81z"/>
	<path class="st2" d="M339.67,163.9c0,0.27-0.09,0.47-0.27,0.61c-0.18,0.14-0.43,0.24-0.74,0.3c-0.32,0.07-0.78,0.1-1.38,0.1
		c-0.59,0-1.05-0.03-1.4-0.1c-0.35-0.07-0.6-0.17-0.76-0.3c-0.16-0.13-0.24-0.34-0.24-0.61v-3.04c-1.33,1.42-2.81,2.52-4.44,3.31
		c-1.63,0.79-3.36,1.18-5.18,1.18c-1.6,0-3.05-0.21-4.34-0.62c-1.3-0.42-2.4-1.02-3.31-1.81c-0.91-0.79-1.62-1.76-2.13-2.91
		c-0.51-1.15-0.76-2.45-0.76-3.92c0-1.71,0.35-3.2,1.05-4.46c0.7-1.26,1.7-2.31,3.01-3.14c1.31-0.83,2.9-1.46,4.8-1.88
		c1.89-0.42,4.02-0.62,6.38-0.62h4.19v-2.36c0-1.17-0.12-2.21-0.37-3.11c-0.25-0.9-0.65-1.65-1.2-2.25
		c-0.55-0.6-1.27-1.05-2.15-1.35c-0.88-0.3-1.96-0.46-3.24-0.46c-1.37,0-2.61,0.16-3.7,0.49c-1.09,0.33-2.05,0.69-2.87,1.08
		c-0.82,0.39-1.51,0.75-2.06,1.08c-0.55,0.33-0.96,0.49-1.23,0.49c-0.18,0-0.34-0.04-0.47-0.13c-0.13-0.09-0.25-0.22-0.35-0.41
		c-0.1-0.18-0.17-0.41-0.22-0.69c-0.05-0.28-0.07-0.59-0.07-0.93c0-0.56,0.04-1.01,0.12-1.33c0.08-0.33,0.27-0.64,0.57-0.93
		c0.3-0.29,0.83-0.64,1.57-1.03c0.74-0.39,1.6-0.75,2.57-1.08c0.97-0.33,2.03-0.6,3.18-0.81c1.15-0.21,2.31-0.32,3.48-0.32
		c2.18,0,4.04,0.25,5.57,0.74c1.53,0.5,2.77,1.22,3.72,2.18s1.63,2.14,2.06,3.56c0.43,1.42,0.64,3.07,0.64,4.96V163.9z
		 M334.13,150.02h-4.76c-1.53,0-2.86,0.13-3.99,0.39c-1.13,0.26-2.06,0.64-2.8,1.15s-1.29,1.11-1.64,1.82
		c-0.35,0.71-0.52,1.53-0.52,2.45c0,1.58,0.5,2.83,1.5,3.77s2.4,1.4,4.21,1.4c1.46,0,2.82-0.37,4.07-1.11
		c1.25-0.74,2.56-1.88,3.94-3.41V150.02z"/>
	<path class="st2" d="M371.76,159.24c0,0.38-0.01,0.71-0.03,1c-0.02,0.28-0.06,0.52-0.12,0.71c-0.06,0.19-0.12,0.36-0.2,0.51
		c-0.08,0.15-0.26,0.36-0.54,0.64c-0.28,0.28-0.76,0.63-1.44,1.05c-0.68,0.42-1.44,0.79-2.28,1.11c-0.84,0.33-1.76,0.59-2.75,0.79
		c-0.99,0.2-2.02,0.3-3.07,0.3c-2.18,0-4.12-0.36-5.81-1.08c-1.69-0.72-3.1-1.77-4.24-3.16s-2-3.08-2.6-5.1
		c-0.6-2.02-0.9-4.34-0.9-6.98c0-2.99,0.37-5.57,1.1-7.72c0.73-2.15,1.73-3.91,3.01-5.29c1.27-1.37,2.77-2.39,4.49-3.06
		s3.59-1,5.59-1c0.97,0,1.91,0.09,2.82,0.27c0.91,0.18,1.75,0.42,2.52,0.71c0.77,0.29,1.45,0.63,2.04,1.01s1.03,0.71,1.3,0.98
		c0.27,0.27,0.46,0.48,0.56,0.64c0.1,0.16,0.19,0.34,0.25,0.56s0.11,0.46,0.14,0.73c0.02,0.27,0.03,0.61,0.03,1.01
		c0,0.88-0.1,1.49-0.3,1.84c-0.2,0.35-0.45,0.52-0.74,0.52c-0.34,0-0.73-0.19-1.17-0.56c-0.44-0.37-1-0.78-1.67-1.23
		c-0.68-0.45-1.49-0.86-2.45-1.23c-0.96-0.37-2.09-0.56-3.39-0.56c-2.68,0-4.73,1.03-6.16,3.09c-1.43,2.06-2.15,5.05-2.15,8.97
		c0,1.96,0.19,3.68,0.56,5.15s0.92,2.71,1.64,3.7c0.72,0.99,1.6,1.73,2.65,2.21c1.05,0.49,2.25,0.73,3.6,0.73
		c1.28,0,2.41-0.2,3.38-0.61c0.97-0.41,1.81-0.85,2.52-1.33c0.71-0.48,1.31-0.92,1.79-1.32c0.48-0.39,0.86-0.59,1.13-0.59
		c0.16,0,0.29,0.05,0.41,0.13c0.11,0.09,0.21,0.24,0.29,0.46c0.08,0.21,0.14,0.48,0.17,0.81
		C371.75,158.4,371.76,158.79,371.76,159.24z"/>
</g>
<g class="st1">
	<path class="st2" d="M405.33,163.87c0,0.18-0.05,0.33-0.14,0.46c-0.09,0.12-0.24,0.23-0.44,0.32s-0.48,0.16-0.84,0.2
		c-0.36,0.04-0.81,0.07-1.35,0.07c-0.56,0-1.02-0.02-1.39-0.07s-0.64-0.11-0.84-0.2s-0.35-0.2-0.44-0.32
		c-0.09-0.12-0.14-0.28-0.14-0.46v-17.8c0-1.73-0.14-3.13-0.41-4.19s-0.66-1.97-1.18-2.74c-0.52-0.77-1.19-1.35-2.01-1.76
		c-0.82-0.41-1.77-0.61-2.85-0.61c-1.4,0-2.79,0.5-4.19,1.49c-1.4,0.99-2.86,2.44-4.39,4.36v21.25c0,0.18-0.05,0.33-0.14,0.46
		c-0.09,0.12-0.24,0.23-0.44,0.32s-0.48,0.16-0.84,0.2s-0.82,0.07-1.38,0.07c-0.54,0-0.99-0.02-1.35-0.07
		c-0.36-0.04-0.65-0.11-0.86-0.2c-0.21-0.09-0.36-0.2-0.44-0.32c-0.08-0.12-0.12-0.28-0.12-0.46v-45.13c0-0.18,0.04-0.34,0.12-0.47
		c0.08-0.14,0.22-0.25,0.44-0.34c0.21-0.09,0.5-0.16,0.86-0.2c0.36-0.04,0.81-0.07,1.35-0.07c0.56,0,1.02,0.02,1.38,0.07
		c0.36,0.05,0.64,0.11,0.84,0.2s0.35,0.2,0.44,0.34c0.09,0.13,0.14,0.29,0.14,0.47v18.21c1.6-1.69,3.21-2.94,4.83-3.77
		c1.62-0.82,3.25-1.23,4.9-1.23c2.03,0,3.73,0.34,5.12,1.03c1.38,0.69,2.5,1.6,3.36,2.75c0.86,1.15,1.47,2.49,1.84,4.04
		c0.37,1.54,0.56,3.41,0.56,5.59V163.87z"/>
</g>
<g class="st1">
	<path class="st2" d="M445.61,123.5c0,0.43-0.02,0.8-0.07,1.11c-0.05,0.32-0.12,0.57-0.22,0.76c-0.1,0.19-0.23,0.33-0.37,0.42
		c-0.15,0.09-0.31,0.13-0.49,0.13h-12.29v37.9c0,0.18-0.05,0.34-0.14,0.47c-0.09,0.13-0.25,0.24-0.47,0.32
		c-0.23,0.08-0.52,0.15-0.9,0.2c-0.37,0.06-0.84,0.08-1.4,0.08c-0.54,0-1-0.03-1.39-0.08c-0.38-0.06-0.69-0.12-0.91-0.2
		c-0.23-0.08-0.38-0.19-0.47-0.32c-0.09-0.13-0.13-0.29-0.13-0.47v-37.9h-12.29c-0.18,0-0.34-0.04-0.49-0.13
		c-0.15-0.09-0.27-0.23-0.35-0.42c-0.09-0.19-0.16-0.44-0.22-0.76c-0.06-0.31-0.08-0.69-0.08-1.11s0.03-0.8,0.08-1.13
		c0.06-0.33,0.13-0.59,0.22-0.79c0.09-0.2,0.21-0.35,0.35-0.44c0.15-0.09,0.31-0.14,0.49-0.14h30.4c0.18,0,0.34,0.05,0.49,0.14
		c0.15,0.09,0.27,0.24,0.37,0.44c0.1,0.2,0.17,0.47,0.22,0.79C445.59,122.7,445.61,123.07,445.61,123.5z"/>
	<path class="st2" d="M477.46,163.87c0,0.18-0.05,0.33-0.14,0.46c-0.09,0.12-0.24,0.23-0.44,0.32s-0.48,0.16-0.84,0.2
		c-0.36,0.04-0.81,0.07-1.35,0.07c-0.56,0-1.02-0.02-1.39-0.07s-0.64-0.11-0.84-0.2s-0.35-0.2-0.44-0.32
		c-0.09-0.12-0.14-0.28-0.14-0.46v-17.8c0-1.73-0.14-3.13-0.41-4.19s-0.66-1.97-1.18-2.74c-0.52-0.77-1.19-1.35-2.01-1.76
		c-0.82-0.41-1.77-0.61-2.85-0.61c-1.4,0-2.79,0.5-4.19,1.49c-1.4,0.99-2.86,2.44-4.39,4.36v21.25c0,0.18-0.05,0.33-0.14,0.46
		c-0.09,0.12-0.24,0.23-0.44,0.32s-0.48,0.16-0.84,0.2s-0.82,0.07-1.38,0.07c-0.54,0-0.99-0.02-1.35-0.07
		c-0.36-0.04-0.65-0.11-0.86-0.2c-0.21-0.09-0.36-0.2-0.44-0.32c-0.08-0.12-0.12-0.28-0.12-0.46v-45.13c0-0.18,0.04-0.34,0.12-0.47
		c0.08-0.14,0.22-0.25,0.44-0.34c0.21-0.09,0.5-0.16,0.86-0.2c0.36-0.04,0.81-0.07,1.35-0.07c0.56,0,1.02,0.02,1.38,0.07
		c0.36,0.05,0.64,0.11,0.84,0.2s0.35,0.2,0.44,0.34c0.09,0.13,0.14,0.29,0.14,0.47v18.21c1.6-1.69,3.21-2.94,4.83-3.77
		c1.62-0.82,3.25-1.23,4.9-1.23c2.03,0,3.73,0.34,5.12,1.03c1.38,0.69,2.5,1.6,3.36,2.75c0.86,1.15,1.47,2.49,1.84,4.04
		c0.37,1.54,0.56,3.41,0.56,5.59V163.87z"/>
	<path class="st2" d="M513.67,163.87c0,0.18-0.04,0.33-0.12,0.46c-0.08,0.12-0.22,0.23-0.42,0.32s-0.47,0.16-0.79,0.2
		s-0.73,0.07-1.2,0.07c-0.52,0-0.94-0.02-1.27-0.07c-0.33-0.04-0.59-0.11-0.78-0.2c-0.19-0.09-0.32-0.2-0.39-0.32
		c-0.07-0.12-0.1-0.28-0.1-0.46v-4.02c-1.73,1.92-3.45,3.31-5.13,4.19c-1.69,0.88-3.4,1.32-5.13,1.32c-2.03,0-3.73-0.34-5.12-1.01
		c-1.38-0.68-2.5-1.59-3.36-2.75s-1.47-2.51-1.84-4.05c-0.37-1.54-0.56-3.42-0.56-5.62v-18.44c0-0.18,0.04-0.33,0.12-0.46
		c0.08-0.12,0.23-0.24,0.46-0.34c0.22-0.1,0.52-0.17,0.88-0.2c0.36-0.03,0.81-0.05,1.35-0.05c0.54,0,0.99,0.02,1.35,0.05
		c0.36,0.03,0.65,0.1,0.86,0.2c0.21,0.1,0.37,0.21,0.46,0.34c0.09,0.12,0.14,0.28,0.14,0.46v17.7c0,1.78,0.13,3.2,0.39,4.27
		c0.26,1.07,0.65,1.98,1.18,2.74c0.53,0.75,1.2,1.34,2.01,1.76s1.76,0.62,2.84,0.62c1.4,0,2.79-0.5,4.17-1.49s2.85-2.44,4.41-4.36
		v-21.25c0-0.18,0.04-0.33,0.12-0.46c0.08-0.12,0.23-0.24,0.46-0.34c0.23-0.1,0.51-0.17,0.86-0.2c0.35-0.03,0.8-0.05,1.37-0.05
		c0.54,0,0.99,0.02,1.35,0.05c0.36,0.03,0.64,0.1,0.84,0.2c0.2,0.1,0.35,0.21,0.46,0.34c0.1,0.12,0.15,0.28,0.15,0.46V163.87z"/>
</g>
<g class="st1">
	<path class="st2" d="M541.74,135.46c0,0.5-0.01,0.91-0.03,1.25s-0.07,0.6-0.13,0.79c-0.07,0.19-0.15,0.34-0.25,0.44
		c-0.1,0.1-0.24,0.15-0.42,0.15c-0.18,0-0.4-0.05-0.66-0.15c-0.26-0.1-0.55-0.2-0.88-0.3s-0.69-0.2-1.1-0.29s-0.84-0.14-1.32-0.14
		c-0.56,0-1.11,0.11-1.65,0.34c-0.54,0.23-1.11,0.6-1.71,1.12s-1.22,1.21-1.88,2.06s-1.37,1.9-2.16,3.14v20
		c0,0.18-0.05,0.33-0.14,0.46c-0.09,0.12-0.24,0.23-0.44,0.32c-0.2,0.09-0.48,0.16-0.84,0.2s-0.82,0.07-1.38,0.07
		c-0.54,0-0.99-0.02-1.35-0.07s-0.65-0.11-0.86-0.2s-0.36-0.2-0.44-0.32c-0.08-0.12-0.12-0.28-0.12-0.46v-30.4
		c0-0.18,0.03-0.33,0.1-0.46c0.07-0.12,0.2-0.24,0.41-0.34c0.2-0.1,0.46-0.17,0.78-0.2c0.32-0.03,0.73-0.05,1.25-0.05
		c0.5,0,0.91,0.02,1.23,0.05c0.33,0.03,0.58,0.1,0.76,0.2c0.18,0.1,0.31,0.21,0.39,0.34c0.08,0.12,0.12,0.28,0.12,0.46v4.42
		c0.83-1.22,1.62-2.21,2.35-2.97s1.42-1.37,2.08-1.81s1.3-0.74,1.94-0.91s1.29-0.25,1.94-0.25c0.29,0,0.62,0.02,1,0.05
		c0.37,0.03,0.76,0.1,1.17,0.19c0.41,0.09,0.77,0.19,1.1,0.3c0.33,0.11,0.56,0.23,0.69,0.34c0.13,0.11,0.22,0.22,0.27,0.32
		c0.04,0.1,0.08,0.23,0.12,0.39c0.03,0.16,0.06,0.39,0.07,0.69C541.74,134.53,541.74,134.94,541.74,135.46z"/>
</g>
<g class="st1">
	<path class="st2" d="M575.41,162.18c0,0.45-0.02,0.83-0.07,1.13c-0.04,0.3-0.12,0.56-0.22,0.78c-0.1,0.21-0.22,0.37-0.37,0.47
		c-0.15,0.1-0.32,0.15-0.52,0.15h-19.32c-0.52,0-1.01-0.17-1.47-0.52c-0.46-0.35-0.69-0.96-0.69-1.84v-40.46
		c0-0.18,0.04-0.34,0.13-0.47c0.09-0.13,0.25-0.24,0.47-0.32c0.23-0.08,0.53-0.15,0.91-0.2c0.38-0.06,0.84-0.08,1.38-0.08
		c0.56,0,1.03,0.03,1.4,0.08c0.37,0.06,0.67,0.12,0.89,0.2c0.23,0.08,0.38,0.19,0.47,0.32c0.09,0.14,0.13,0.29,0.13,0.47v37.8h15.67
		c0.2,0,0.38,0.05,0.52,0.15s0.27,0.25,0.37,0.44c0.1,0.19,0.17,0.44,0.22,0.76S575.41,161.73,575.41,162.18z"/>
	<path class="st2" d="M604.09,163.9c0,0.27-0.09,0.47-0.27,0.61c-0.18,0.14-0.43,0.24-0.74,0.3c-0.32,0.07-0.78,0.1-1.38,0.1
		c-0.59,0-1.05-0.03-1.4-0.1c-0.35-0.07-0.6-0.17-0.76-0.3c-0.16-0.13-0.24-0.34-0.24-0.61v-3.04c-1.33,1.42-2.81,2.52-4.44,3.31
		c-1.63,0.79-3.36,1.18-5.18,1.18c-1.6,0-3.05-0.21-4.34-0.62c-1.3-0.42-2.4-1.02-3.31-1.81s-1.62-1.76-2.13-2.91
		s-0.76-2.45-0.76-3.92c0-1.71,0.35-3.2,1.05-4.46c0.7-1.26,1.7-2.31,3.01-3.14s2.91-1.46,4.8-1.88c1.89-0.42,4.02-0.62,6.38-0.62
		h4.19v-2.36c0-1.17-0.12-2.21-0.37-3.11c-0.25-0.9-0.65-1.65-1.2-2.25c-0.55-0.6-1.27-1.05-2.15-1.35
		c-0.88-0.3-1.96-0.46-3.24-0.46c-1.37,0-2.61,0.16-3.7,0.49c-1.09,0.33-2.05,0.69-2.87,1.08c-0.82,0.39-1.51,0.75-2.06,1.08
		c-0.55,0.33-0.96,0.49-1.23,0.49c-0.18,0-0.34-0.04-0.47-0.13s-0.25-0.22-0.35-0.41c-0.1-0.18-0.17-0.41-0.22-0.69
		c-0.05-0.28-0.07-0.59-0.07-0.93c0-0.56,0.04-1.01,0.12-1.33c0.08-0.33,0.27-0.64,0.57-0.93c0.3-0.29,0.83-0.64,1.57-1.03
		c0.74-0.39,1.6-0.75,2.57-1.08c0.97-0.33,2.03-0.6,3.17-0.81c1.15-0.21,2.31-0.32,3.48-0.32c2.18,0,4.04,0.25,5.57,0.74
		c1.53,0.5,2.77,1.22,3.71,2.18c0.95,0.96,1.63,2.14,2.06,3.56c0.43,1.42,0.64,3.07,0.64,4.96V163.9z M598.55,150.02h-4.76
		c-1.53,0-2.86,0.13-3.99,0.39c-1.13,0.26-2.06,0.64-2.8,1.15s-1.29,1.11-1.64,1.82c-0.35,0.71-0.52,1.53-0.52,2.45
		c0,1.58,0.5,2.83,1.5,3.77s2.4,1.4,4.21,1.4c1.46,0,2.82-0.37,4.07-1.11c1.25-0.74,2.56-1.88,3.94-3.41V150.02z"/>
	<path class="st2" d="M640.5,163.87c0,0.18-0.04,0.33-0.13,0.46c-0.09,0.12-0.24,0.23-0.44,0.32c-0.2,0.09-0.48,0.16-0.84,0.2
		c-0.36,0.04-0.81,0.07-1.35,0.07c-0.56,0-1.02-0.02-1.38-0.07s-0.64-0.11-0.84-0.2c-0.2-0.09-0.35-0.2-0.44-0.32
		c-0.09-0.12-0.14-0.28-0.14-0.46v-17.8c0-1.73-0.13-3.13-0.41-4.19c-0.27-1.06-0.66-1.97-1.18-2.74c-0.52-0.77-1.19-1.35-2.01-1.76
		c-0.82-0.41-1.77-0.61-2.85-0.61c-1.4,0-2.79,0.5-4.19,1.49s-2.86,2.44-4.39,4.36v21.25c0,0.18-0.05,0.33-0.14,0.46
		c-0.09,0.12-0.24,0.23-0.44,0.32c-0.2,0.09-0.48,0.16-0.84,0.2s-0.82,0.07-1.38,0.07c-0.54,0-0.99-0.02-1.35-0.07
		s-0.65-0.11-0.86-0.2s-0.36-0.2-0.44-0.32c-0.08-0.12-0.12-0.28-0.12-0.46v-30.4c0-0.18,0.03-0.33,0.1-0.46
		c0.07-0.12,0.2-0.24,0.41-0.34c0.2-0.1,0.46-0.17,0.78-0.2c0.32-0.03,0.73-0.05,1.25-0.05c0.5,0,0.91,0.02,1.23,0.05
		c0.33,0.03,0.58,0.1,0.76,0.2c0.18,0.1,0.31,0.21,0.39,0.34c0.08,0.12,0.12,0.28,0.12,0.46v4.02c1.71-1.91,3.42-3.32,5.12-4.21
		s3.42-1.33,5.15-1.33c2.03,0,3.73,0.34,5.12,1.03s2.5,1.6,3.36,2.75c0.86,1.15,1.47,2.49,1.84,4.04c0.37,1.54,0.56,3.39,0.56,5.56
		V163.87z"/>
	<path class="st2" d="M676.71,163.87c0,0.18-0.04,0.34-0.12,0.47c-0.08,0.13-0.21,0.24-0.41,0.32c-0.19,0.08-0.44,0.14-0.76,0.19
		s-0.7,0.07-1.15,0.07c-0.47,0-0.87-0.02-1.18-0.07c-0.32-0.04-0.57-0.11-0.78-0.19c-0.2-0.08-0.35-0.19-0.44-0.32
		c-0.09-0.14-0.13-0.29-0.13-0.47v-4.02c-1.6,1.73-3.26,3.09-4.98,4.05s-3.61,1.45-5.66,1.45c-2.23,0-4.13-0.43-5.71-1.3
		c-1.58-0.87-2.85-2.04-3.83-3.51c-0.98-1.47-1.7-3.21-2.15-5.2s-0.67-4.09-0.67-6.3c0-2.61,0.28-4.97,0.84-7.08s1.4-3.9,2.5-5.39
		c1.1-1.49,2.47-2.63,4.1-3.43c1.63-0.8,3.52-1.2,5.66-1.2c1.78,0,3.41,0.39,4.88,1.17c1.47,0.78,2.93,1.92,4.37,3.43v-17.67
		c0-0.16,0.04-0.31,0.12-0.46c0.08-0.15,0.23-0.26,0.46-0.34c0.22-0.08,0.51-0.15,0.86-0.2c0.35-0.06,0.79-0.08,1.33-0.08
		c0.56,0,1.02,0.03,1.38,0.08c0.36,0.06,0.64,0.12,0.84,0.2c0.2,0.08,0.35,0.19,0.46,0.34c0.1,0.15,0.15,0.3,0.15,0.46V163.87z
		 M671.1,142.48c-1.51-1.87-2.97-3.29-4.37-4.27c-1.41-0.98-2.88-1.47-4.41-1.47c-1.42,0-2.62,0.34-3.61,1.01
		c-0.99,0.68-1.8,1.57-2.42,2.67c-0.62,1.1-1.07,2.35-1.35,3.75c-0.28,1.4-0.42,2.81-0.42,4.26c0,1.53,0.12,3.03,0.35,4.49
		s0.65,2.76,1.23,3.9c0.58,1.14,1.36,2.05,2.33,2.74c0.97,0.69,2.18,1.03,3.65,1.03c0.74,0,1.46-0.1,2.14-0.3s1.39-0.54,2.11-1.01
		c0.72-0.47,1.47-1.09,2.26-1.84c0.79-0.75,1.62-1.68,2.5-2.79V142.48z"/>
</g>
<g class="st1">
	<path d="M27.24,200.39c0,0.9-0.17,1.71-0.5,2.41c-0.33,0.7-0.79,1.3-1.38,1.79c-0.59,0.49-1.29,0.86-2.08,1.11
		c-0.8,0.25-1.66,0.37-2.58,0.37c-0.65,0-1.24-0.05-1.79-0.16c-0.55-0.11-1.04-0.24-1.47-0.4c-0.43-0.16-0.79-0.32-1.09-0.49
		c-0.29-0.17-0.5-0.31-0.61-0.43c-0.11-0.12-0.2-0.27-0.25-0.45c-0.05-0.18-0.08-0.43-0.08-0.74c0-0.22,0.01-0.4,0.03-0.54
		c0.02-0.14,0.05-0.26,0.09-0.35c0.04-0.09,0.09-0.15,0.15-0.19c0.06-0.03,0.13-0.05,0.21-0.05c0.14,0,0.33,0.08,0.59,0.25
		s0.58,0.35,0.98,0.55s0.88,0.38,1.44,0.56c0.56,0.17,1.21,0.26,1.94,0.26c0.56,0,1.06-0.08,1.53-0.22
		c0.46-0.15,0.86-0.36,1.19-0.63c0.33-0.27,0.59-0.61,0.77-1c0.18-0.4,0.27-0.85,0.27-1.35c0-0.55-0.12-1.01-0.37-1.4
		c-0.25-0.39-0.58-0.73-0.98-1.02c-0.41-0.29-0.87-0.56-1.39-0.8s-1.05-0.49-1.6-0.74c-0.55-0.25-1.08-0.53-1.59-0.84
		s-0.98-0.67-1.38-1.09c-0.41-0.42-0.74-0.91-0.99-1.47s-0.38-1.23-0.38-2.02c0-0.8,0.15-1.52,0.44-2.15
		c0.29-0.63,0.7-1.16,1.22-1.59c0.52-0.43,1.14-0.75,1.86-0.97c0.72-0.22,1.5-0.33,2.33-0.33c0.43,0,0.86,0.04,1.29,0.11
		s0.84,0.17,1.22,0.3c0.38,0.12,0.72,0.26,1.02,0.42c0.3,0.15,0.49,0.28,0.59,0.37s0.16,0.17,0.19,0.22
		c0.03,0.05,0.05,0.12,0.07,0.21c0.02,0.08,0.03,0.19,0.04,0.31c0.01,0.12,0.02,0.27,0.02,0.46c0,0.18-0.01,0.34-0.02,0.48
		c-0.01,0.14-0.04,0.26-0.07,0.35c-0.03,0.09-0.07,0.16-0.13,0.21c-0.05,0.04-0.12,0.07-0.19,0.07c-0.11,0-0.28-0.07-0.51-0.21
		c-0.23-0.14-0.52-0.29-0.86-0.47s-0.74-0.33-1.2-0.48s-0.98-0.22-1.56-0.22c-0.54,0-1,0.07-1.4,0.22s-0.72,0.33-0.98,0.57
		c-0.26,0.24-0.45,0.52-0.58,0.85c-0.13,0.33-0.19,0.67-0.19,1.04c0,0.54,0.12,1,0.37,1.38c0.25,0.39,0.58,0.73,0.99,1.03
		c0.41,0.3,0.88,0.57,1.41,0.82c0.53,0.25,1.06,0.5,1.61,0.75s1.08,0.53,1.61,0.83c0.53,0.3,1,0.66,1.41,1.07
		c0.41,0.41,0.74,0.9,1,1.46C27.12,198.96,27.24,199.62,27.24,200.39z"/>
	<path d="M42.1,205.42c0,0.08-0.02,0.15-0.05,0.2s-0.1,0.1-0.19,0.14c-0.09,0.04-0.21,0.07-0.35,0.09
		c-0.14,0.02-0.32,0.03-0.53,0.03c-0.23,0-0.41-0.01-0.56-0.03c-0.14-0.02-0.26-0.05-0.34-0.09c-0.08-0.04-0.14-0.09-0.17-0.14
		s-0.04-0.12-0.04-0.2v-1.77c-0.76,0.84-1.52,1.46-2.26,1.85c-0.74,0.39-1.5,0.58-2.26,0.58c-0.89,0-1.65-0.15-2.26-0.45
		c-0.61-0.3-1.1-0.7-1.48-1.21c-0.38-0.51-0.65-1.11-0.81-1.79c-0.16-0.68-0.25-1.51-0.25-2.48v-8.13c0-0.08,0.02-0.15,0.05-0.2
		s0.1-0.1,0.2-0.15c0.1-0.04,0.23-0.08,0.39-0.09c0.16-0.01,0.36-0.02,0.6-0.02c0.24,0,0.44,0.01,0.6,0.02s0.29,0.04,0.38,0.09
		c0.09,0.04,0.16,0.09,0.2,0.15s0.06,0.12,0.06,0.2v7.8c0,0.78,0.06,1.41,0.17,1.88c0.11,0.47,0.29,0.87,0.52,1.21
		c0.23,0.33,0.53,0.59,0.89,0.77s0.77,0.28,1.25,0.28c0.62,0,1.23-0.22,1.84-0.66s1.26-1.08,1.94-1.92v-9.36
		c0-0.08,0.02-0.15,0.05-0.2s0.1-0.1,0.2-0.15c0.1-0.04,0.23-0.08,0.38-0.09s0.35-0.02,0.6-0.02c0.24,0,0.44,0.01,0.6,0.02
		c0.16,0.01,0.28,0.04,0.37,0.09c0.09,0.04,0.16,0.09,0.2,0.15c0.04,0.05,0.07,0.12,0.07,0.2V205.42z"/>
	<path d="M49.1,205.42c0,0.08-0.02,0.15-0.06,0.2s-0.1,0.1-0.19,0.14c-0.09,0.04-0.21,0.07-0.37,0.09
		c-0.16,0.02-0.36,0.03-0.61,0.03c-0.24,0-0.44-0.01-0.6-0.03c-0.16-0.02-0.29-0.05-0.38-0.09c-0.09-0.04-0.16-0.09-0.19-0.14
		c-0.04-0.05-0.05-0.12-0.05-0.2v-19.89c0-0.08,0.02-0.15,0.05-0.21c0.03-0.06,0.1-0.11,0.19-0.15s0.22-0.07,0.38-0.09
		c0.16-0.02,0.36-0.03,0.6-0.03c0.25,0,0.45,0.01,0.61,0.03c0.16,0.02,0.28,0.05,0.37,0.09s0.15,0.09,0.19,0.15s0.06,0.13,0.06,0.21
		V205.42z"/>
	<path d="M64.84,192.63c0,0.35-0.05,0.6-0.14,0.75c-0.09,0.15-0.22,0.23-0.36,0.23h-1.92c0.35,0.36,0.59,0.75,0.73,1.18
		c0.14,0.43,0.21,0.88,0.21,1.35c0,0.77-0.12,1.46-0.37,2.05s-0.6,1.1-1.06,1.51c-0.46,0.41-1.01,0.73-1.65,0.95
		c-0.64,0.22-1.34,0.33-2.11,0.33c-0.55,0-1.06-0.07-1.56-0.22c-0.49-0.14-0.87-0.33-1.14-0.54c-0.18,0.18-0.33,0.38-0.44,0.61
		c-0.11,0.23-0.17,0.49-0.17,0.79c0,0.35,0.16,0.64,0.48,0.86c0.32,0.23,0.75,0.35,1.29,0.37l3.5,0.15
		c0.66,0.02,1.28,0.11,1.83,0.28s1.04,0.4,1.44,0.7c0.41,0.3,0.72,0.67,0.95,1.12s0.34,0.96,0.34,1.54c0,0.62-0.13,1.2-0.39,1.76
		c-0.26,0.56-0.65,1.04-1.18,1.47c-0.53,0.42-1.21,0.75-2.03,1c-0.82,0.24-1.8,0.37-2.92,0.37c-1.08,0-2-0.09-2.76-0.28
		c-0.76-0.18-1.38-0.43-1.87-0.75c-0.49-0.32-0.84-0.7-1.06-1.14c-0.22-0.44-0.33-0.92-0.33-1.44c0-0.33,0.04-0.65,0.12-0.95
		c0.08-0.31,0.2-0.6,0.36-0.88s0.37-0.54,0.61-0.8c0.24-0.25,0.52-0.5,0.84-0.75c-0.49-0.25-0.85-0.56-1.08-0.94
		s-0.35-0.78-0.35-1.22c0-0.61,0.12-1.15,0.37-1.62s0.56-0.9,0.92-1.28c-0.31-0.37-0.55-0.78-0.73-1.24s-0.27-1.02-0.27-1.67
		c0-0.76,0.13-1.45,0.39-2.05s0.62-1.12,1.07-1.53c0.46-0.42,1-0.74,1.65-0.96c0.64-0.22,1.34-0.33,2.09-0.33
		c0.41,0,0.79,0.02,1.14,0.07c0.35,0.04,0.68,0.11,0.99,0.19h4.05c0.17,0,0.29,0.08,0.38,0.25S64.84,192.29,64.84,192.63z
		 M62.23,206.77c0-0.58-0.24-1.02-0.71-1.33c-0.47-0.31-1.11-0.48-1.91-0.5l-3.47-0.12c-0.32,0.25-0.58,0.48-0.78,0.71
		c-0.2,0.22-0.36,0.44-0.48,0.64c-0.12,0.2-0.2,0.4-0.25,0.6c-0.04,0.2-0.07,0.4-0.07,0.61c0,0.65,0.33,1.13,0.98,1.47
		c0.66,0.33,1.57,0.5,2.74,0.5c0.74,0,1.37-0.07,1.87-0.22c0.5-0.14,0.91-0.33,1.21-0.57s0.53-0.51,0.66-0.82
		C62.16,207.43,62.23,207.11,62.23,206.77z M61,196.16c0-0.91-0.25-1.62-0.75-2.14c-0.5-0.51-1.21-0.77-2.14-0.77
		c-0.48,0-0.89,0.08-1.24,0.24c-0.35,0.16-0.65,0.38-0.88,0.66c-0.23,0.28-0.41,0.6-0.52,0.96s-0.17,0.74-0.17,1.14
		c0,0.88,0.25,1.58,0.75,2.08c0.5,0.51,1.2,0.76,2.11,0.76c0.49,0,0.91-0.08,1.27-0.23c0.36-0.15,0.65-0.37,0.89-0.64
		c0.23-0.27,0.41-0.59,0.52-0.95C60.94,196.92,61,196.55,61,196.16z"/>
	<path d="M79.17,198.14c0,0.39-0.1,0.66-0.29,0.83s-0.42,0.25-0.67,0.25h-8.82c0,0.75,0.07,1.42,0.22,2.01
		c0.15,0.59,0.4,1.11,0.75,1.53s0.8,0.75,1.36,0.98s1.24,0.34,2.05,0.34c0.64,0,1.21-0.05,1.71-0.16c0.5-0.1,0.93-0.22,1.29-0.35
		c0.36-0.13,0.66-0.25,0.9-0.35c0.23-0.1,0.41-0.16,0.53-0.16c0.07,0,0.13,0.02,0.19,0.05c0.06,0.04,0.1,0.09,0.13,0.16
		c0.03,0.07,0.05,0.17,0.07,0.29c0.02,0.12,0.02,0.28,0.02,0.45c0,0.13-0.01,0.24-0.02,0.33s-0.02,0.18-0.04,0.25
		c-0.02,0.07-0.04,0.14-0.07,0.2s-0.08,0.12-0.13,0.17s-0.22,0.14-0.48,0.27s-0.62,0.25-1.04,0.36c-0.43,0.12-0.92,0.23-1.48,0.32
		c-0.56,0.09-1.16,0.14-1.79,0.14c-1.1,0-2.07-0.15-2.9-0.46s-1.53-0.76-2.09-1.37c-0.57-0.6-0.99-1.36-1.28-2.28
		c-0.29-0.91-0.43-1.98-0.43-3.19c0-1.15,0.15-2.19,0.45-3.1c0.3-0.92,0.73-1.7,1.29-2.34c0.56-0.64,1.24-1.13,2.03-1.47
		c0.79-0.34,1.68-0.51,2.67-0.51c1.05,0,1.95,0.17,2.69,0.51c0.74,0.34,1.35,0.79,1.82,1.36c0.48,0.57,0.83,1.24,1.05,2.01
		c0.22,0.77,0.33,1.59,0.33,2.46V198.14z M76.7,197.41c0.03-1.29-0.26-2.3-0.86-3.04c-0.6-0.73-1.5-1.1-2.69-1.1
		c-0.61,0-1.14,0.11-1.6,0.34c-0.46,0.23-0.84,0.53-1.15,0.91s-0.55,0.82-0.72,1.32c-0.17,0.5-0.26,1.03-0.28,1.57H76.7z"/>
	<path d="M94.45,205.42c0,0.08-0.02,0.15-0.06,0.2c-0.04,0.05-0.1,0.1-0.19,0.14c-0.09,0.04-0.21,0.07-0.37,0.09
		c-0.16,0.02-0.36,0.03-0.6,0.03c-0.25,0-0.45-0.01-0.61-0.03c-0.16-0.02-0.28-0.05-0.37-0.09c-0.09-0.04-0.15-0.09-0.19-0.14
		c-0.04-0.05-0.06-0.12-0.06-0.2v-7.85c0-0.76-0.06-1.38-0.18-1.85s-0.29-0.87-0.52-1.21c-0.23-0.34-0.52-0.6-0.89-0.77
		s-0.78-0.27-1.26-0.27c-0.62,0-1.23,0.22-1.85,0.66c-0.62,0.44-1.26,1.08-1.94,1.92v9.37c0,0.08-0.02,0.15-0.06,0.2
		s-0.1,0.1-0.19,0.14c-0.09,0.04-0.21,0.07-0.37,0.09c-0.16,0.02-0.36,0.03-0.61,0.03c-0.24,0-0.44-0.01-0.6-0.03
		c-0.16-0.02-0.29-0.05-0.38-0.09c-0.09-0.04-0.16-0.09-0.19-0.14c-0.04-0.05-0.05-0.12-0.05-0.2v-13.4c0-0.08,0.02-0.15,0.04-0.2
		s0.09-0.1,0.18-0.15c0.09-0.04,0.2-0.08,0.34-0.09c0.14-0.01,0.32-0.02,0.55-0.02c0.22,0,0.4,0.01,0.54,0.02
		c0.14,0.01,0.26,0.04,0.33,0.09c0.08,0.04,0.14,0.09,0.17,0.15c0.03,0.05,0.05,0.12,0.05,0.2v1.77c0.75-0.84,1.51-1.46,2.26-1.85
		c0.75-0.39,1.51-0.59,2.27-0.59c0.89,0,1.65,0.15,2.26,0.45s1.1,0.71,1.48,1.21c0.38,0.51,0.65,1.1,0.81,1.78
		c0.16,0.68,0.25,1.5,0.25,2.45V205.42z"/>
</g>
<g class="st1">
	<path d="M114.35,197.59c0,0.55-0.1,1.08-0.31,1.58c-0.21,0.5-0.5,0.93-0.87,1.3c-0.37,0.37-0.8,0.65-1.29,0.86
		c-0.49,0.21-1.02,0.31-1.58,0.31c-0.55,0-1.08-0.1-1.58-0.31s-0.93-0.49-1.3-0.85c-0.37-0.37-0.65-0.8-0.85-1.3
		c-0.2-0.5-0.31-1.02-0.31-1.58c0-0.57,0.1-1.1,0.31-1.59s0.5-0.92,0.86-1.29c0.37-0.37,0.8-0.66,1.29-0.87
		c0.5-0.21,1.02-0.31,1.58-0.31c0.55,0,1.08,0.1,1.58,0.31c0.5,0.21,0.93,0.5,1.29,0.86c0.37,0.37,0.65,0.8,0.86,1.29
		C114.25,196.5,114.35,197.02,114.35,197.59z"/>
</g>
<g class="st1">
	<path d="M138.84,205.37c0,0.08-0.02,0.15-0.05,0.22s-0.1,0.12-0.2,0.16c-0.1,0.04-0.23,0.07-0.4,0.1
		c-0.17,0.03-0.39,0.04-0.65,0.04c-0.35,0-0.63-0.01-0.85-0.04c-0.22-0.03-0.38-0.08-0.49-0.16c-0.11-0.08-0.2-0.17-0.27-0.27
		l-7.09-9.63v9.63c0,0.07-0.02,0.14-0.06,0.2c-0.04,0.07-0.11,0.11-0.21,0.15s-0.23,0.06-0.39,0.09c-0.16,0.03-0.37,0.04-0.62,0.04
		c-0.24,0-0.44-0.01-0.61-0.04c-0.17-0.02-0.3-0.05-0.4-0.09s-0.17-0.08-0.21-0.15c-0.04-0.06-0.06-0.13-0.06-0.2v-18.49
		c0-0.08,0.02-0.15,0.06-0.21s0.11-0.11,0.21-0.14c0.1-0.03,0.23-0.06,0.4-0.09c0.17-0.02,0.37-0.04,0.61-0.04
		c0.25,0,0.45,0.01,0.62,0.04s0.3,0.05,0.39,0.09c0.1,0.04,0.17,0.08,0.21,0.14s0.06,0.13,0.06,0.21v8.56l6.82-8.56
		c0.06-0.09,0.13-0.16,0.21-0.22c0.08-0.06,0.18-0.11,0.29-0.14c0.11-0.03,0.25-0.06,0.42-0.08c0.16-0.02,0.37-0.03,0.63-0.03
		c0.26,0,0.47,0.01,0.63,0.04c0.16,0.02,0.29,0.06,0.38,0.1s0.16,0.09,0.19,0.15s0.05,0.12,0.05,0.19c0,0.13-0.03,0.26-0.1,0.39
		s-0.19,0.31-0.36,0.54l-6.39,7.64l6.88,9.14c0.17,0.26,0.27,0.43,0.31,0.53S138.84,205.31,138.84,205.37z"/>
	<path d="M149.18,192.9c0,0.22,0,0.4-0.01,0.55c-0.01,0.15-0.03,0.27-0.06,0.35c-0.03,0.08-0.07,0.15-0.11,0.19
		c-0.04,0.04-0.11,0.07-0.19,0.07s-0.18-0.02-0.29-0.07c-0.11-0.04-0.24-0.09-0.39-0.13c-0.14-0.04-0.31-0.09-0.48-0.13
		c-0.18-0.04-0.37-0.06-0.58-0.06c-0.25,0-0.49,0.05-0.73,0.15c-0.24,0.1-0.49,0.26-0.75,0.49c-0.26,0.23-0.54,0.53-0.83,0.91
		c-0.29,0.38-0.61,0.84-0.95,1.38v8.81c0,0.08-0.02,0.15-0.06,0.2s-0.1,0.1-0.19,0.14c-0.09,0.04-0.21,0.07-0.37,0.09
		c-0.16,0.02-0.36,0.03-0.61,0.03c-0.24,0-0.44-0.01-0.6-0.03c-0.16-0.02-0.29-0.05-0.38-0.09c-0.09-0.04-0.16-0.09-0.19-0.14
		c-0.04-0.05-0.05-0.12-0.05-0.2v-13.4c0-0.08,0.02-0.15,0.04-0.2s0.09-0.1,0.18-0.15c0.09-0.04,0.2-0.08,0.34-0.09
		c0.14-0.01,0.32-0.02,0.55-0.02c0.22,0,0.4,0.01,0.54,0.02c0.14,0.01,0.26,0.04,0.33,0.09c0.08,0.04,0.14,0.09,0.17,0.15
		c0.03,0.05,0.05,0.12,0.05,0.2v1.95c0.37-0.54,0.71-0.97,1.03-1.31c0.32-0.34,0.63-0.6,0.92-0.8c0.29-0.19,0.57-0.33,0.86-0.4
		s0.57-0.11,0.86-0.11c0.13,0,0.28,0.01,0.44,0.02c0.16,0.01,0.33,0.04,0.51,0.08c0.18,0.04,0.34,0.08,0.48,0.13
		c0.14,0.05,0.25,0.1,0.31,0.15s0.1,0.1,0.12,0.14c0.02,0.04,0.04,0.1,0.05,0.17c0.02,0.07,0.02,0.17,0.03,0.31
		S149.18,192.67,149.18,192.9z"/>
	<path d="M161.45,205.43c0,0.12-0.04,0.21-0.12,0.27s-0.19,0.1-0.33,0.13c-0.14,0.03-0.34,0.04-0.61,0.04
		c-0.26,0-0.46-0.01-0.62-0.04c-0.15-0.03-0.27-0.07-0.33-0.13c-0.07-0.06-0.1-0.15-0.1-0.27v-1.34c-0.59,0.62-1.24,1.11-1.96,1.46
		c-0.72,0.35-1.48,0.52-2.29,0.52c-0.7,0-1.34-0.09-1.91-0.28s-1.06-0.45-1.46-0.8s-0.71-0.77-0.94-1.28
		c-0.22-0.51-0.33-1.08-0.33-1.73c0-0.75,0.15-1.41,0.46-1.96s0.75-1.02,1.33-1.38s1.28-0.64,2.11-0.83
		c0.83-0.18,1.77-0.28,2.81-0.28h1.85v-1.04c0-0.52-0.05-0.97-0.16-1.37c-0.11-0.4-0.29-0.73-0.53-0.99
		c-0.24-0.26-0.56-0.46-0.95-0.59c-0.39-0.13-0.86-0.2-1.43-0.2c-0.61,0-1.15,0.07-1.63,0.22c-0.48,0.14-0.9,0.3-1.27,0.48
		s-0.67,0.33-0.91,0.48c-0.24,0.14-0.42,0.22-0.54,0.22c-0.08,0-0.15-0.02-0.21-0.06c-0.06-0.04-0.11-0.1-0.16-0.18
		c-0.04-0.08-0.08-0.18-0.1-0.31c-0.02-0.12-0.03-0.26-0.03-0.41c0-0.25,0.02-0.44,0.05-0.59c0.03-0.14,0.12-0.28,0.25-0.41
		c0.13-0.13,0.36-0.28,0.69-0.45c0.33-0.17,0.7-0.33,1.13-0.48c0.43-0.14,0.89-0.26,1.4-0.36c0.51-0.09,1.02-0.14,1.53-0.14
		c0.96,0,1.78,0.11,2.46,0.33c0.67,0.22,1.22,0.54,1.64,0.96s0.72,0.95,0.91,1.57c0.19,0.62,0.28,1.35,0.28,2.19V205.43z
		 M159.01,199.31h-2.1c-0.67,0-1.26,0.06-1.76,0.17c-0.5,0.11-0.91,0.28-1.24,0.51c-0.33,0.22-0.57,0.49-0.72,0.8
		c-0.15,0.31-0.23,0.67-0.23,1.08c0,0.7,0.22,1.25,0.66,1.66c0.44,0.41,1.06,0.62,1.85,0.62c0.65,0,1.24-0.16,1.79-0.49
		c0.55-0.33,1.13-0.83,1.73-1.5V199.31z"/>
	<path d="M177.44,205.42c0,0.08-0.02,0.15-0.05,0.21s-0.09,0.11-0.18,0.14c-0.08,0.04-0.2,0.06-0.33,0.08
		c-0.14,0.02-0.31,0.03-0.51,0.03c-0.21,0-0.38-0.01-0.52-0.03c-0.14-0.02-0.25-0.05-0.34-0.08c-0.09-0.03-0.15-0.08-0.19-0.14
		c-0.04-0.06-0.06-0.13-0.06-0.21v-1.77c-0.71,0.76-1.44,1.36-2.2,1.79s-1.59,0.64-2.49,0.64c-0.98,0-1.82-0.19-2.52-0.57
		c-0.69-0.38-1.26-0.9-1.69-1.55c-0.43-0.65-0.75-1.41-0.95-2.29c-0.2-0.88-0.3-1.8-0.3-2.78c0-1.15,0.12-2.19,0.37-3.12
		c0.25-0.93,0.62-1.72,1.1-2.38c0.49-0.65,1.09-1.16,1.81-1.51s1.55-0.53,2.49-0.53c0.78,0,1.5,0.17,2.15,0.51
		c0.65,0.34,1.29,0.85,1.93,1.51v-7.79c0-0.07,0.02-0.14,0.05-0.2s0.1-0.11,0.2-0.15c0.1-0.04,0.23-0.06,0.38-0.09
		c0.15-0.02,0.35-0.04,0.59-0.04c0.25,0,0.45,0.01,0.61,0.04c0.16,0.03,0.28,0.05,0.37,0.09c0.09,0.03,0.16,0.08,0.2,0.15
		c0.04,0.06,0.07,0.13,0.07,0.2V205.42z M174.97,195.99c-0.67-0.82-1.31-1.45-1.93-1.88c-0.62-0.43-1.27-0.65-1.94-0.65
		c-0.63,0-1.16,0.15-1.59,0.45c-0.44,0.3-0.79,0.69-1.06,1.18c-0.27,0.49-0.47,1.04-0.6,1.65s-0.19,1.24-0.19,1.88
		c0,0.67,0.05,1.33,0.16,1.98c0.1,0.65,0.29,1.22,0.54,1.72c0.26,0.5,0.6,0.9,1.03,1.21s0.96,0.45,1.61,0.45
		c0.33,0,0.64-0.04,0.95-0.13c0.3-0.09,0.61-0.24,0.93-0.45c0.32-0.21,0.65-0.48,1-0.81c0.35-0.33,0.71-0.74,1.1-1.23V195.99z"/>
	<path d="M194.44,198.57c0,1.09-0.14,2.1-0.43,3.01c-0.29,0.92-0.72,1.71-1.29,2.38s-1.29,1.18-2.14,1.56
		c-0.86,0.37-1.85,0.56-2.99,0.56c-1.1,0-2.06-0.16-2.88-0.49c-0.82-0.33-1.5-0.8-2.05-1.43c-0.55-0.62-0.95-1.38-1.22-2.28
		c-0.27-0.89-0.4-1.91-0.4-3.04c0-1.09,0.14-2.1,0.42-3.01c0.28-0.92,0.71-1.71,1.28-2.38c0.57-0.66,1.28-1.18,2.14-1.55
		c0.85-0.37,1.85-0.55,2.99-0.55c1.1,0,2.06,0.16,2.88,0.49s1.5,0.8,2.05,1.43c0.55,0.63,0.96,1.38,1.23,2.28
		C194.31,196.44,194.44,197.45,194.44,198.57z M191.9,198.73c0-0.72-0.07-1.41-0.2-2.05c-0.14-0.65-0.36-1.21-0.67-1.7
		c-0.31-0.49-0.73-0.87-1.26-1.15c-0.53-0.28-1.19-0.42-1.98-0.42c-0.73,0-1.36,0.13-1.89,0.39c-0.53,0.26-0.96,0.62-1.3,1.09
		c-0.34,0.47-0.59,1.03-0.76,1.67c-0.17,0.65-0.25,1.35-0.25,2.11c0,0.73,0.07,1.42,0.2,2.07c0.13,0.65,0.36,1.21,0.68,1.69
		s0.74,0.86,1.27,1.15c0.53,0.28,1.19,0.42,1.98,0.42c0.72,0,1.35-0.13,1.88-0.39c0.53-0.26,0.97-0.62,1.31-1.09
		c0.34-0.47,0.59-1.02,0.75-1.67C191.82,200.22,191.9,199.51,191.9,198.73z"/>
	<path d="M200.52,205.42c0,0.08-0.02,0.15-0.06,0.2s-0.1,0.1-0.19,0.14c-0.09,0.04-0.21,0.07-0.37,0.09
		c-0.16,0.02-0.36,0.03-0.61,0.03c-0.24,0-0.44-0.01-0.6-0.03c-0.16-0.02-0.29-0.05-0.38-0.09c-0.09-0.04-0.16-0.09-0.19-0.14
		c-0.04-0.05-0.05-0.12-0.05-0.2v-19.89c0-0.08,0.02-0.15,0.05-0.21c0.03-0.06,0.1-0.11,0.19-0.15s0.22-0.07,0.38-0.09
		c0.16-0.02,0.36-0.03,0.6-0.03c0.25,0,0.45,0.01,0.61,0.03c0.16,0.02,0.28,0.05,0.37,0.09s0.15,0.09,0.19,0.15s0.06,0.13,0.06,0.21
		V205.42z"/>
	<path d="M212.4,186.51c0,0.19-0.01,0.34-0.03,0.45s-0.04,0.21-0.07,0.28s-0.06,0.12-0.1,0.14c-0.04,0.02-0.09,0.04-0.15,0.04
		c-0.07,0-0.16-0.02-0.26-0.07c-0.1-0.04-0.23-0.09-0.38-0.15s-0.33-0.1-0.53-0.15c-0.2-0.04-0.44-0.07-0.71-0.07
		c-0.37,0-0.68,0.06-0.94,0.18c-0.26,0.12-0.47,0.3-0.62,0.56c-0.16,0.25-0.27,0.58-0.34,0.98c-0.07,0.4-0.1,0.89-0.1,1.47v1.46
		h2.99c0.08,0,0.15,0.02,0.2,0.05s0.1,0.09,0.15,0.18c0.04,0.08,0.08,0.19,0.1,0.32s0.04,0.29,0.04,0.48c0,0.36-0.04,0.62-0.13,0.77
		c-0.09,0.16-0.21,0.24-0.36,0.24h-2.99v11.75c0,0.08-0.02,0.15-0.06,0.2c-0.04,0.05-0.11,0.1-0.2,0.14
		c-0.09,0.04-0.22,0.07-0.38,0.09c-0.16,0.02-0.36,0.03-0.6,0.03s-0.44-0.01-0.6-0.03c-0.16-0.02-0.29-0.05-0.38-0.09
		c-0.09-0.04-0.16-0.09-0.2-0.14s-0.06-0.12-0.06-0.2v-11.75h-1.89c-0.16,0-0.28-0.08-0.36-0.24c-0.08-0.16-0.12-0.42-0.12-0.77
		c0-0.19,0.01-0.35,0.03-0.48s0.05-0.24,0.09-0.32s0.09-0.14,0.15-0.18s0.13-0.05,0.21-0.05h1.89v-1.38c0-0.93,0.09-1.73,0.26-2.41
		c0.17-0.67,0.44-1.22,0.8-1.64s0.81-0.74,1.35-0.95c0.54-0.2,1.18-0.31,1.91-0.31c0.35,0,0.68,0.03,1.01,0.1
		c0.33,0.07,0.58,0.13,0.76,0.21s0.3,0.14,0.36,0.2s0.11,0.14,0.15,0.23c0.04,0.09,0.07,0.21,0.08,0.34
		C212.39,186.16,212.4,186.32,212.4,186.51z"/>
	<path d="M219.57,198.27c0,0.39-0.04,0.66-0.13,0.8c-0.09,0.15-0.22,0.22-0.39,0.22h-6.22c-0.18,0-0.31-0.08-0.4-0.23
		c-0.09-0.15-0.13-0.42-0.13-0.8s0.04-0.64,0.13-0.79s0.22-0.22,0.4-0.22h6.22c0.08,0,0.15,0.02,0.22,0.04
		c0.06,0.03,0.12,0.09,0.16,0.17c0.04,0.08,0.08,0.19,0.1,0.32C219.56,197.92,219.57,198.08,219.57,198.27z"/>
	<path d="M233.51,200.39c0,0.9-0.17,1.71-0.5,2.41c-0.33,0.7-0.79,1.3-1.38,1.79c-0.59,0.49-1.29,0.86-2.08,1.11
		c-0.8,0.25-1.66,0.37-2.58,0.37c-0.65,0-1.24-0.05-1.79-0.16c-0.55-0.11-1.04-0.24-1.47-0.4c-0.43-0.16-0.79-0.32-1.09-0.49
		c-0.29-0.17-0.5-0.31-0.61-0.43c-0.11-0.12-0.2-0.27-0.25-0.45c-0.05-0.18-0.08-0.43-0.08-0.74c0-0.22,0.01-0.4,0.03-0.54
		c0.02-0.14,0.05-0.26,0.09-0.35c0.04-0.09,0.09-0.15,0.15-0.19c0.06-0.03,0.13-0.05,0.21-0.05c0.14,0,0.33,0.08,0.59,0.25
		s0.58,0.35,0.98,0.55s0.88,0.38,1.44,0.56c0.56,0.17,1.21,0.26,1.94,0.26c0.56,0,1.06-0.08,1.53-0.22
		c0.46-0.15,0.86-0.36,1.19-0.63c0.33-0.27,0.59-0.61,0.77-1c0.18-0.4,0.27-0.85,0.27-1.35c0-0.55-0.12-1.01-0.37-1.4
		c-0.25-0.39-0.58-0.73-0.98-1.02c-0.41-0.29-0.87-0.56-1.39-0.8s-1.05-0.49-1.6-0.74c-0.55-0.25-1.08-0.53-1.59-0.84
		s-0.98-0.67-1.38-1.09c-0.41-0.42-0.74-0.91-0.99-1.47s-0.38-1.23-0.38-2.02c0-0.8,0.15-1.52,0.44-2.15
		c0.29-0.63,0.7-1.16,1.22-1.59c0.52-0.43,1.14-0.75,1.86-0.97c0.72-0.22,1.5-0.33,2.33-0.33c0.43,0,0.86,0.04,1.29,0.11
		s0.84,0.17,1.22,0.3c0.38,0.12,0.72,0.26,1.02,0.42c0.3,0.15,0.49,0.28,0.59,0.37s0.16,0.17,0.19,0.22
		c0.03,0.05,0.05,0.12,0.07,0.21c0.02,0.08,0.03,0.19,0.04,0.31c0.01,0.12,0.02,0.27,0.02,0.46c0,0.18-0.01,0.34-0.02,0.48
		c-0.01,0.14-0.04,0.26-0.07,0.35c-0.03,0.09-0.07,0.16-0.13,0.21c-0.05,0.04-0.12,0.07-0.19,0.07c-0.11,0-0.28-0.07-0.51-0.21
		c-0.23-0.14-0.52-0.29-0.86-0.47s-0.74-0.33-1.2-0.48s-0.98-0.22-1.56-0.22c-0.54,0-1,0.07-1.4,0.22s-0.72,0.33-0.98,0.57
		c-0.26,0.24-0.45,0.52-0.58,0.85c-0.13,0.33-0.19,0.67-0.19,1.04c0,0.54,0.12,1,0.37,1.38c0.25,0.39,0.58,0.73,0.99,1.03
		c0.41,0.3,0.88,0.57,1.41,0.82c0.53,0.25,1.06,0.5,1.61,0.75s1.08,0.53,1.61,0.83c0.53,0.3,1,0.66,1.41,1.07
		c0.41,0.41,0.74,0.9,1,1.46C233.38,198.96,233.51,199.62,233.51,200.39z"/>
	<path d="M246.52,203.38c0,0.17-0.01,0.32-0.02,0.44s-0.03,0.23-0.05,0.31c-0.02,0.08-0.05,0.16-0.09,0.22
		c-0.04,0.06-0.11,0.16-0.24,0.28c-0.12,0.12-0.33,0.28-0.63,0.46s-0.63,0.35-1,0.49c-0.37,0.14-0.78,0.26-1.21,0.35
		c-0.44,0.09-0.89,0.13-1.35,0.13c-0.96,0-1.82-0.16-2.56-0.48c-0.74-0.32-1.37-0.78-1.87-1.39c-0.5-0.61-0.88-1.36-1.15-2.25
		c-0.26-0.89-0.39-1.91-0.39-3.07c0-1.32,0.16-2.45,0.48-3.4c0.32-0.95,0.76-1.72,1.33-2.33c0.56-0.61,1.22-1.05,1.98-1.35
		s1.58-0.44,2.46-0.44c0.43,0,0.84,0.04,1.24,0.12c0.4,0.08,0.77,0.18,1.11,0.31s0.64,0.28,0.9,0.45c0.26,0.17,0.45,0.31,0.57,0.43
		s0.2,0.21,0.25,0.28c0.04,0.07,0.08,0.15,0.11,0.25s0.05,0.2,0.06,0.32s0.02,0.27,0.02,0.45c0,0.39-0.04,0.66-0.13,0.81
		c-0.09,0.15-0.2,0.23-0.33,0.23c-0.15,0-0.32-0.08-0.51-0.25c-0.19-0.16-0.44-0.34-0.74-0.54c-0.3-0.2-0.66-0.38-1.08-0.54
		c-0.42-0.16-0.92-0.25-1.5-0.25c-1.18,0-2.09,0.45-2.72,1.36c-0.63,0.91-0.95,2.23-0.95,3.95c0,0.86,0.08,1.62,0.25,2.27
		c0.16,0.65,0.4,1.19,0.72,1.63c0.32,0.44,0.71,0.76,1.17,0.98c0.46,0.21,0.99,0.32,1.59,0.32c0.57,0,1.06-0.09,1.49-0.27
		c0.43-0.18,0.8-0.37,1.11-0.59s0.58-0.41,0.79-0.58c0.21-0.17,0.38-0.26,0.5-0.26c0.07,0,0.13,0.02,0.18,0.06
		c0.05,0.04,0.09,0.11,0.13,0.2c0.03,0.09,0.06,0.21,0.07,0.36C246.52,203.01,246.52,203.18,246.52,203.38z"/>
	<path d="M261.32,205.42c0,0.08-0.02,0.15-0.06,0.2c-0.04,0.05-0.1,0.1-0.19,0.14c-0.09,0.04-0.21,0.07-0.37,0.09
		c-0.16,0.02-0.36,0.03-0.6,0.03c-0.25,0-0.45-0.01-0.61-0.03c-0.16-0.02-0.28-0.05-0.37-0.09c-0.09-0.04-0.15-0.09-0.19-0.14
		c-0.04-0.05-0.06-0.12-0.06-0.2v-7.85c0-0.76-0.06-1.38-0.18-1.85s-0.29-0.87-0.52-1.21c-0.23-0.34-0.52-0.6-0.89-0.77
		s-0.78-0.27-1.26-0.27c-0.62,0-1.23,0.22-1.85,0.66c-0.62,0.44-1.26,1.08-1.94,1.92v9.37c0,0.08-0.02,0.15-0.06,0.2
		s-0.1,0.1-0.19,0.14c-0.09,0.04-0.21,0.07-0.37,0.09c-0.16,0.02-0.36,0.03-0.61,0.03c-0.24,0-0.44-0.01-0.6-0.03
		c-0.16-0.02-0.29-0.05-0.38-0.09c-0.09-0.04-0.16-0.09-0.19-0.14c-0.04-0.05-0.05-0.12-0.05-0.2v-19.89c0-0.08,0.02-0.15,0.05-0.21
		c0.03-0.06,0.1-0.11,0.19-0.15s0.22-0.07,0.38-0.09c0.16-0.02,0.36-0.03,0.6-0.03c0.25,0,0.45,0.01,0.61,0.03
		c0.16,0.02,0.28,0.05,0.37,0.09s0.15,0.09,0.19,0.15s0.06,0.13,0.06,0.21v8.02c0.7-0.74,1.41-1.3,2.13-1.66
		c0.71-0.36,1.43-0.54,2.16-0.54c0.89,0,1.65,0.15,2.26,0.45s1.1,0.71,1.48,1.21c0.38,0.51,0.65,1.1,0.81,1.78
		c0.16,0.68,0.25,1.5,0.25,2.46V205.42z"/>
	<path d="M278.26,198.57c0,1.09-0.14,2.1-0.43,3.01c-0.29,0.92-0.72,1.71-1.29,2.38s-1.29,1.18-2.14,1.56
		c-0.86,0.37-1.85,0.56-2.99,0.56c-1.1,0-2.06-0.16-2.88-0.49c-0.82-0.33-1.5-0.8-2.05-1.43c-0.55-0.62-0.95-1.38-1.22-2.28
		c-0.27-0.89-0.4-1.91-0.4-3.04c0-1.09,0.14-2.1,0.42-3.01c0.28-0.92,0.71-1.71,1.28-2.38c0.57-0.66,1.28-1.18,2.14-1.55
		c0.85-0.37,1.85-0.55,2.99-0.55c1.1,0,2.06,0.16,2.88,0.49s1.5,0.8,2.05,1.43c0.55,0.63,0.96,1.38,1.23,2.28
		C278.13,196.44,278.26,197.45,278.26,198.57z M275.72,198.73c0-0.72-0.07-1.41-0.2-2.05c-0.14-0.65-0.36-1.21-0.67-1.7
		c-0.31-0.49-0.73-0.87-1.26-1.15c-0.53-0.28-1.19-0.42-1.98-0.42c-0.73,0-1.36,0.13-1.89,0.39c-0.53,0.26-0.96,0.62-1.3,1.09
		c-0.34,0.47-0.59,1.03-0.76,1.67c-0.17,0.65-0.25,1.35-0.25,2.11c0,0.73,0.07,1.42,0.2,2.07c0.13,0.65,0.36,1.21,0.68,1.69
		s0.74,0.86,1.27,1.15c0.53,0.28,1.19,0.42,1.98,0.42c0.72,0,1.35-0.13,1.88-0.39c0.53-0.26,0.97-0.62,1.31-1.09
		c0.34-0.47,0.59-1.02,0.75-1.67C275.64,200.22,275.72,199.51,275.72,198.73z M270.33,187.67c0,0.55-0.1,0.92-0.3,1.12
		c-0.2,0.2-0.57,0.3-1.1,0.3c-0.54,0-0.9-0.1-1.09-0.29s-0.28-0.55-0.28-1.08c0-0.56,0.1-0.93,0.29-1.13c0.19-0.2,0.56-0.3,1.09-0.3
		c0.55,0,0.91,0.1,1.1,0.3C270.23,186.78,270.33,187.15,270.33,187.67z M275.6,187.67c0,0.55-0.1,0.92-0.3,1.12
		c-0.2,0.2-0.57,0.3-1.1,0.3s-0.9-0.1-1.09-0.29s-0.28-0.55-0.28-1.08c0-0.56,0.1-0.93,0.29-1.13c0.19-0.2,0.56-0.3,1.09-0.3
		c0.55,0,0.91,0.1,1.1,0.3C275.5,186.78,275.6,187.15,275.6,187.67z"/>
	<path d="M293.42,205.42c0,0.08-0.02,0.15-0.06,0.2c-0.04,0.05-0.1,0.1-0.19,0.14c-0.09,0.04-0.21,0.07-0.37,0.09
		c-0.16,0.02-0.36,0.03-0.6,0.03c-0.25,0-0.45-0.01-0.61-0.03c-0.16-0.02-0.28-0.05-0.37-0.09c-0.09-0.04-0.15-0.09-0.19-0.14
		c-0.04-0.05-0.06-0.12-0.06-0.2v-7.85c0-0.76-0.06-1.38-0.18-1.85s-0.29-0.87-0.52-1.21c-0.23-0.34-0.52-0.6-0.89-0.77
		s-0.78-0.27-1.26-0.27c-0.62,0-1.23,0.22-1.85,0.66c-0.62,0.44-1.26,1.08-1.94,1.92v9.37c0,0.08-0.02,0.15-0.06,0.2
		s-0.1,0.1-0.19,0.14c-0.09,0.04-0.21,0.07-0.37,0.09c-0.16,0.02-0.36,0.03-0.61,0.03c-0.24,0-0.44-0.01-0.6-0.03
		c-0.16-0.02-0.29-0.05-0.38-0.09c-0.09-0.04-0.16-0.09-0.19-0.14c-0.04-0.05-0.05-0.12-0.05-0.2v-13.4c0-0.08,0.02-0.15,0.04-0.2
		s0.09-0.1,0.18-0.15c0.09-0.04,0.2-0.08,0.34-0.09c0.14-0.01,0.32-0.02,0.55-0.02c0.22,0,0.4,0.01,0.54,0.02
		c0.14,0.01,0.26,0.04,0.33,0.09c0.08,0.04,0.14,0.09,0.17,0.15c0.03,0.05,0.05,0.12,0.05,0.2v1.77c0.75-0.84,1.51-1.46,2.26-1.85
		c0.75-0.39,1.51-0.59,2.27-0.59c0.89,0,1.65,0.15,2.26,0.45s1.1,0.71,1.48,1.21c0.38,0.51,0.65,1.1,0.81,1.78
		c0.16,0.68,0.25,1.5,0.25,2.45V205.42z"/>
	<path d="M309.34,198.14c0,0.39-0.1,0.66-0.29,0.83s-0.42,0.25-0.67,0.25h-8.82c0,0.75,0.07,1.42,0.22,2.01
		c0.15,0.59,0.4,1.11,0.75,1.53s0.8,0.75,1.36,0.98s1.24,0.34,2.05,0.34c0.64,0,1.21-0.05,1.71-0.16c0.5-0.1,0.93-0.22,1.29-0.35
		c0.36-0.13,0.66-0.25,0.9-0.35c0.23-0.1,0.41-0.16,0.53-0.16c0.07,0,0.13,0.02,0.19,0.05c0.06,0.04,0.1,0.09,0.13,0.16
		c0.03,0.07,0.05,0.17,0.07,0.29c0.02,0.12,0.02,0.28,0.02,0.45c0,0.13-0.01,0.24-0.02,0.33s-0.02,0.18-0.04,0.25
		c-0.02,0.07-0.04,0.14-0.07,0.2s-0.08,0.12-0.13,0.17s-0.22,0.14-0.48,0.27s-0.62,0.25-1.04,0.36c-0.43,0.12-0.92,0.23-1.48,0.32
		c-0.56,0.09-1.16,0.14-1.79,0.14c-1.1,0-2.07-0.15-2.9-0.46s-1.53-0.76-2.09-1.37c-0.57-0.6-0.99-1.36-1.28-2.28
		c-0.29-0.91-0.43-1.98-0.43-3.19c0-1.15,0.15-2.19,0.45-3.1c0.3-0.92,0.73-1.7,1.29-2.34c0.56-0.64,1.24-1.13,2.03-1.47
		c0.79-0.34,1.68-0.51,2.67-0.51c1.05,0,1.95,0.17,2.69,0.51c0.74,0.34,1.35,0.79,1.82,1.36c0.48,0.57,0.83,1.24,1.05,2.01
		c0.22,0.77,0.33,1.59,0.33,2.46V198.14z M306.86,197.41c0.03-1.29-0.26-2.3-0.86-3.04c-0.6-0.73-1.5-1.1-2.69-1.1
		c-0.61,0-1.14,0.11-1.6,0.34c-0.46,0.23-0.84,0.53-1.15,0.91s-0.55,0.82-0.72,1.32c-0.17,0.5-0.26,1.03-0.28,1.57H306.86z"/>
	<path d="M324.61,205.42c0,0.08-0.02,0.15-0.06,0.2c-0.04,0.05-0.1,0.1-0.19,0.14c-0.09,0.04-0.21,0.07-0.37,0.09
		c-0.16,0.02-0.36,0.03-0.6,0.03c-0.25,0-0.45-0.01-0.61-0.03c-0.16-0.02-0.28-0.05-0.37-0.09c-0.09-0.04-0.15-0.09-0.19-0.14
		c-0.04-0.05-0.06-0.12-0.06-0.2v-7.85c0-0.76-0.06-1.38-0.18-1.85s-0.29-0.87-0.52-1.21c-0.23-0.34-0.52-0.6-0.89-0.77
		s-0.78-0.27-1.26-0.27c-0.62,0-1.23,0.22-1.85,0.66c-0.62,0.44-1.26,1.08-1.94,1.92v9.37c0,0.08-0.02,0.15-0.06,0.2
		s-0.1,0.1-0.19,0.14c-0.09,0.04-0.21,0.07-0.37,0.09c-0.16,0.02-0.36,0.03-0.61,0.03c-0.24,0-0.44-0.01-0.6-0.03
		c-0.16-0.02-0.29-0.05-0.38-0.09c-0.09-0.04-0.16-0.09-0.19-0.14c-0.04-0.05-0.05-0.12-0.05-0.2v-13.4c0-0.08,0.02-0.15,0.04-0.2
		s0.09-0.1,0.18-0.15c0.09-0.04,0.2-0.08,0.34-0.09c0.14-0.01,0.32-0.02,0.55-0.02c0.22,0,0.4,0.01,0.54,0.02
		c0.14,0.01,0.26,0.04,0.33,0.09c0.08,0.04,0.14,0.09,0.17,0.15c0.03,0.05,0.05,0.12,0.05,0.2v1.77c0.75-0.84,1.51-1.46,2.26-1.85
		c0.75-0.39,1.51-0.59,2.27-0.59c0.89,0,1.65,0.15,2.26,0.45s1.1,0.71,1.48,1.21c0.38,0.51,0.65,1.1,0.81,1.78
		c0.16,0.68,0.25,1.5,0.25,2.45V205.42z"/>
	<path d="M341.42,198.54c0,1.16-0.13,2.21-0.38,3.13c-0.25,0.93-0.62,1.72-1.12,2.37c-0.49,0.66-1.09,1.16-1.81,1.5
		c-0.71,0.35-1.53,0.52-2.46,0.52c-0.43,0-0.82-0.04-1.18-0.13c-0.36-0.08-0.72-0.22-1.06-0.41c-0.35-0.19-0.7-0.43-1.04-0.71
		c-0.35-0.29-0.71-0.63-1.1-1.04v1.64c0,0.08-0.02,0.15-0.06,0.21c-0.04,0.06-0.1,0.11-0.19,0.14c-0.09,0.04-0.2,0.06-0.33,0.08
		c-0.13,0.02-0.31,0.03-0.51,0.03c-0.2,0-0.37-0.01-0.51-0.03c-0.14-0.02-0.25-0.05-0.34-0.08c-0.09-0.03-0.15-0.08-0.18-0.14
		s-0.04-0.13-0.04-0.21v-19.89c0-0.08,0.02-0.15,0.05-0.21c0.03-0.06,0.1-0.11,0.19-0.15s0.22-0.07,0.38-0.09
		c0.16-0.02,0.36-0.03,0.6-0.03c0.25,0,0.45,0.01,0.61,0.03c0.16,0.02,0.28,0.05,0.37,0.09s0.15,0.09,0.19,0.15s0.06,0.13,0.06,0.21
		v8.02c0.4-0.41,0.78-0.75,1.15-1.03c0.37-0.28,0.74-0.5,1.09-0.68c0.36-0.17,0.71-0.3,1.07-0.38c0.36-0.08,0.73-0.12,1.13-0.12
		c0.97,0,1.8,0.19,2.49,0.58c0.69,0.39,1.25,0.91,1.68,1.56c0.43,0.65,0.75,1.41,0.95,2.29
		C341.32,196.64,341.42,197.57,341.42,198.54z M338.87,198.82c0-0.68-0.05-1.35-0.16-2c-0.1-0.64-0.29-1.22-0.55-1.71
		c-0.26-0.5-0.6-0.9-1.03-1.2c-0.43-0.3-0.96-0.45-1.6-0.45c-0.32,0-0.63,0.04-0.94,0.13c-0.31,0.09-0.62,0.24-0.94,0.45
		c-0.32,0.21-0.65,0.48-1,0.8c-0.34,0.33-0.71,0.74-1.1,1.24v5.34c0.68,0.82,1.33,1.45,1.95,1.88c0.62,0.43,1.26,0.65,1.93,0.65
		c0.62,0,1.15-0.15,1.59-0.45c0.44-0.3,0.8-0.69,1.07-1.18c0.27-0.49,0.47-1.04,0.6-1.65S338.87,199.45,338.87,198.82z"/>
	<path d="M356.55,198.14c0,0.39-0.1,0.66-0.29,0.83s-0.42,0.25-0.67,0.25h-8.82c0,0.75,0.07,1.42,0.22,2.01
		c0.15,0.59,0.4,1.11,0.75,1.53s0.8,0.75,1.36,0.98s1.24,0.34,2.05,0.34c0.64,0,1.21-0.05,1.71-0.16c0.5-0.1,0.93-0.22,1.29-0.35
		c0.36-0.13,0.66-0.25,0.9-0.35c0.23-0.1,0.41-0.16,0.53-0.16c0.07,0,0.13,0.02,0.19,0.05c0.06,0.04,0.1,0.09,0.13,0.16
		c0.03,0.07,0.05,0.17,0.07,0.29c0.02,0.12,0.02,0.28,0.02,0.45c0,0.13-0.01,0.24-0.02,0.33s-0.02,0.18-0.04,0.25
		c-0.02,0.07-0.04,0.14-0.07,0.2s-0.08,0.12-0.13,0.17s-0.22,0.14-0.48,0.27s-0.62,0.25-1.04,0.36c-0.43,0.12-0.92,0.23-1.48,0.32
		c-0.56,0.09-1.16,0.14-1.79,0.14c-1.1,0-2.07-0.15-2.9-0.46s-1.53-0.76-2.09-1.37c-0.57-0.6-0.99-1.36-1.28-2.28
		c-0.29-0.91-0.43-1.98-0.43-3.19c0-1.15,0.15-2.19,0.45-3.1c0.3-0.92,0.73-1.7,1.29-2.34c0.56-0.64,1.24-1.13,2.03-1.47
		c0.79-0.34,1.68-0.51,2.67-0.51c1.05,0,1.95,0.17,2.69,0.51c0.74,0.34,1.35,0.79,1.82,1.36c0.48,0.57,0.83,1.24,1.05,2.01
		c0.22,0.77,0.33,1.59,0.33,2.46V198.14z M354.07,197.41c0.03-1.29-0.26-2.3-0.86-3.04c-0.6-0.73-1.5-1.1-2.69-1.1
		c-0.61,0-1.14,0.11-1.6,0.34c-0.46,0.23-0.84,0.53-1.15,0.91s-0.55,0.82-0.72,1.32c-0.17,0.5-0.26,1.03-0.28,1.57H354.07z"/>
	<path d="M368.11,192.9c0,0.22,0,0.4-0.01,0.55c-0.01,0.15-0.03,0.27-0.06,0.35c-0.03,0.08-0.07,0.15-0.11,0.19
		c-0.04,0.04-0.11,0.07-0.19,0.07s-0.18-0.02-0.29-0.07c-0.11-0.04-0.24-0.09-0.39-0.13c-0.14-0.04-0.31-0.09-0.48-0.13
		c-0.18-0.04-0.37-0.06-0.58-0.06c-0.25,0-0.49,0.05-0.73,0.15c-0.24,0.1-0.49,0.26-0.75,0.49c-0.26,0.23-0.54,0.53-0.83,0.91
		c-0.29,0.38-0.61,0.84-0.95,1.38v8.81c0,0.08-0.02,0.15-0.06,0.2s-0.1,0.1-0.19,0.14c-0.09,0.04-0.21,0.07-0.37,0.09
		c-0.16,0.02-0.36,0.03-0.61,0.03c-0.24,0-0.44-0.01-0.6-0.03c-0.16-0.02-0.29-0.05-0.38-0.09c-0.09-0.04-0.16-0.09-0.19-0.14
		c-0.04-0.05-0.05-0.12-0.05-0.2v-13.4c0-0.08,0.02-0.15,0.04-0.2s0.09-0.1,0.18-0.15c0.09-0.04,0.2-0.08,0.34-0.09
		c0.14-0.01,0.32-0.02,0.55-0.02c0.22,0,0.4,0.01,0.54,0.02c0.14,0.01,0.26,0.04,0.33,0.09c0.08,0.04,0.14,0.09,0.17,0.15
		c0.03,0.05,0.05,0.12,0.05,0.2v1.95c0.37-0.54,0.71-0.97,1.03-1.31c0.32-0.34,0.63-0.6,0.92-0.8c0.29-0.19,0.57-0.33,0.86-0.4
		s0.57-0.11,0.86-0.11c0.13,0,0.28,0.01,0.44,0.02c0.16,0.01,0.33,0.04,0.51,0.08c0.18,0.04,0.34,0.08,0.48,0.13
		c0.14,0.05,0.25,0.1,0.31,0.15s0.1,0.1,0.12,0.14c0.02,0.04,0.04,0.1,0.05,0.17c0.02,0.07,0.02,0.17,0.03,0.31
		S368.11,192.67,368.11,192.9z"/>
	<path d="M381.69,192.63c0,0.35-0.05,0.6-0.14,0.75c-0.09,0.15-0.22,0.23-0.36,0.23h-1.92c0.35,0.36,0.59,0.75,0.73,1.18
		c0.14,0.43,0.21,0.88,0.21,1.35c0,0.77-0.12,1.46-0.37,2.05s-0.6,1.1-1.06,1.51c-0.46,0.41-1.01,0.73-1.65,0.95
		c-0.64,0.22-1.34,0.33-2.11,0.33c-0.55,0-1.06-0.07-1.56-0.22c-0.49-0.14-0.87-0.33-1.14-0.54c-0.18,0.18-0.33,0.38-0.44,0.61
		c-0.11,0.23-0.17,0.49-0.17,0.79c0,0.35,0.16,0.64,0.48,0.86c0.32,0.23,0.75,0.35,1.29,0.37l3.5,0.15
		c0.66,0.02,1.28,0.11,1.83,0.28s1.04,0.4,1.44,0.7c0.41,0.3,0.72,0.67,0.95,1.12s0.34,0.96,0.34,1.54c0,0.62-0.13,1.2-0.39,1.76
		c-0.26,0.56-0.65,1.04-1.18,1.47c-0.53,0.42-1.21,0.75-2.03,1c-0.82,0.24-1.8,0.37-2.92,0.37c-1.08,0-2-0.09-2.76-0.28
		c-0.76-0.18-1.38-0.43-1.87-0.75c-0.49-0.32-0.84-0.7-1.06-1.14c-0.22-0.44-0.33-0.92-0.33-1.44c0-0.33,0.04-0.65,0.12-0.95
		c0.08-0.31,0.2-0.6,0.36-0.88s0.37-0.54,0.61-0.8c0.24-0.25,0.52-0.5,0.84-0.75c-0.49-0.25-0.85-0.56-1.08-0.94
		s-0.35-0.78-0.35-1.22c0-0.61,0.12-1.15,0.37-1.62s0.56-0.9,0.92-1.28c-0.31-0.37-0.55-0.78-0.73-1.24s-0.27-1.02-0.27-1.67
		c0-0.76,0.13-1.45,0.39-2.05s0.62-1.12,1.07-1.53c0.46-0.42,1-0.74,1.65-0.96c0.64-0.22,1.34-0.33,2.09-0.33
		c0.41,0,0.79,0.02,1.14,0.07c0.35,0.04,0.68,0.11,0.99,0.19h4.05c0.17,0,0.29,0.08,0.38,0.25S381.69,192.29,381.69,192.63z
		 M379.09,206.77c0-0.58-0.24-1.02-0.71-1.33c-0.47-0.31-1.11-0.48-1.91-0.5l-3.47-0.12c-0.32,0.25-0.58,0.48-0.78,0.71
		c-0.2,0.22-0.36,0.44-0.48,0.64c-0.12,0.2-0.2,0.4-0.25,0.6c-0.04,0.2-0.07,0.4-0.07,0.61c0,0.65,0.33,1.13,0.98,1.47
		c0.66,0.33,1.57,0.5,2.74,0.5c0.74,0,1.37-0.07,1.87-0.22c0.5-0.14,0.91-0.33,1.21-0.57s0.53-0.51,0.66-0.82
		C379.02,207.43,379.09,207.11,379.09,206.77z M377.85,196.16c0-0.91-0.25-1.62-0.75-2.14c-0.5-0.51-1.21-0.77-2.14-0.77
		c-0.48,0-0.89,0.08-1.24,0.24c-0.35,0.16-0.65,0.38-0.88,0.66c-0.23,0.28-0.41,0.6-0.52,0.96s-0.17,0.74-0.17,1.14
		c0,0.88,0.25,1.58,0.75,2.08c0.5,0.51,1.2,0.76,2.11,0.76c0.49,0,0.91-0.08,1.27-0.23c0.36-0.15,0.65-0.37,0.89-0.64
		c0.23-0.27,0.41-0.59,0.52-0.95C377.79,196.92,377.85,196.55,377.85,196.16z"/>
</g>
<g class="st1">
	<path d="M402.36,197.59c0,0.55-0.1,1.08-0.31,1.58c-0.21,0.5-0.5,0.93-0.87,1.3c-0.37,0.37-0.8,0.65-1.29,0.86
		c-0.49,0.21-1.02,0.31-1.58,0.31c-0.55,0-1.08-0.1-1.58-0.31s-0.93-0.49-1.3-0.85c-0.37-0.37-0.65-0.8-0.85-1.3
		c-0.2-0.5-0.31-1.02-0.31-1.58c0-0.57,0.1-1.1,0.31-1.59s0.5-0.92,0.86-1.29c0.37-0.37,0.8-0.66,1.29-0.87
		c0.5-0.21,1.02-0.31,1.58-0.31c0.55,0,1.08,0.1,1.58,0.31c0.5,0.21,0.93,0.5,1.29,0.86c0.37,0.37,0.65,0.8,0.86,1.29
		C402.26,196.5,402.36,197.02,402.36,197.59z"/>
</g>
<g class="st1">
	<path d="M424.99,204.73c0,0.18-0.01,0.33-0.03,0.47s-0.05,0.25-0.1,0.33c-0.05,0.09-0.11,0.15-0.17,0.19
		c-0.06,0.04-0.14,0.06-0.22,0.06h-9.25c-0.23,0-0.44-0.08-0.65-0.23c-0.2-0.15-0.31-0.42-0.31-0.81v-17.18
		c0-0.39,0.1-0.66,0.31-0.81c0.2-0.15,0.42-0.23,0.65-0.23h9.14c0.08,0,0.15,0.02,0.22,0.06c0.06,0.04,0.12,0.1,0.16,0.19
		c0.04,0.09,0.07,0.2,0.1,0.33c0.02,0.13,0.04,0.3,0.04,0.5c0,0.18-0.01,0.33-0.04,0.47c-0.02,0.13-0.06,0.24-0.1,0.33
		c-0.04,0.08-0.09,0.15-0.16,0.19c-0.06,0.04-0.14,0.06-0.22,0.06h-7.53v6.04h6.46c0.08,0,0.15,0.02,0.22,0.07
		c0.06,0.04,0.12,0.11,0.16,0.19c0.04,0.08,0.08,0.19,0.1,0.33c0.02,0.14,0.03,0.3,0.03,0.49c0,0.18-0.01,0.33-0.03,0.46
		c-0.02,0.13-0.05,0.23-0.1,0.31c-0.04,0.08-0.1,0.14-0.16,0.17s-0.14,0.05-0.22,0.05h-6.46v6.89h7.64c0.08,0,0.15,0.02,0.22,0.06
		s0.12,0.1,0.17,0.19c0.05,0.08,0.08,0.19,0.1,0.33S424.99,204.54,424.99,204.73z"/>
	<path d="M436.71,192.9c0,0.22,0,0.4-0.01,0.55c-0.01,0.15-0.03,0.27-0.06,0.35c-0.03,0.08-0.07,0.15-0.11,0.19
		c-0.04,0.04-0.11,0.07-0.19,0.07s-0.18-0.02-0.29-0.07c-0.11-0.04-0.24-0.09-0.39-0.13c-0.14-0.04-0.31-0.09-0.48-0.13
		c-0.18-0.04-0.37-0.06-0.58-0.06c-0.25,0-0.49,0.05-0.73,0.15c-0.24,0.1-0.49,0.26-0.75,0.49c-0.26,0.23-0.54,0.53-0.83,0.91
		c-0.29,0.38-0.61,0.84-0.95,1.38v8.81c0,0.08-0.02,0.15-0.06,0.2s-0.1,0.1-0.19,0.14c-0.09,0.04-0.21,0.07-0.37,0.09
		c-0.16,0.02-0.36,0.03-0.61,0.03c-0.24,0-0.44-0.01-0.6-0.03c-0.16-0.02-0.29-0.05-0.38-0.09c-0.09-0.04-0.16-0.09-0.19-0.14
		c-0.04-0.05-0.05-0.12-0.05-0.2v-13.4c0-0.08,0.02-0.15,0.04-0.2s0.09-0.1,0.18-0.15c0.09-0.04,0.2-0.08,0.34-0.09
		c0.14-0.01,0.32-0.02,0.55-0.02c0.22,0,0.4,0.01,0.54,0.02c0.14,0.01,0.26,0.04,0.33,0.09c0.08,0.04,0.14,0.09,0.17,0.15
		c0.03,0.05,0.05,0.12,0.05,0.2v1.95c0.37-0.54,0.71-0.97,1.03-1.31c0.32-0.34,0.63-0.6,0.92-0.8c0.29-0.19,0.57-0.33,0.86-0.4
		s0.57-0.11,0.86-0.11c0.13,0,0.28,0.01,0.44,0.02c0.16,0.01,0.33,0.04,0.51,0.08c0.18,0.04,0.34,0.08,0.48,0.13
		c0.14,0.05,0.25,0.1,0.31,0.15s0.1,0.1,0.12,0.14c0.02,0.04,0.04,0.1,0.05,0.17c0.02,0.07,0.02,0.17,0.03,0.31
		S436.71,192.67,436.71,192.9z"/>
	<path d="M441.96,205.42c0,0.08-0.02,0.15-0.06,0.2s-0.1,0.1-0.19,0.14c-0.09,0.04-0.21,0.07-0.37,0.09
		c-0.16,0.02-0.36,0.03-0.61,0.03c-0.24,0-0.44-0.01-0.6-0.03c-0.16-0.02-0.29-0.05-0.38-0.09c-0.09-0.04-0.16-0.09-0.19-0.14
		c-0.04-0.05-0.05-0.12-0.05-0.2v-19.89c0-0.08,0.02-0.15,0.05-0.21c0.03-0.06,0.1-0.11,0.19-0.15s0.22-0.07,0.38-0.09
		c0.16-0.02,0.36-0.03,0.6-0.03c0.25,0,0.45,0.01,0.61,0.03c0.16,0.02,0.28,0.05,0.37,0.09s0.15,0.09,0.19,0.15s0.06,0.13,0.06,0.21
		V205.42z"/>
	<path d="M457.94,198.14c0,0.39-0.1,0.66-0.29,0.83s-0.42,0.25-0.67,0.25h-8.82c0,0.75,0.07,1.42,0.22,2.01
		c0.15,0.59,0.4,1.11,0.75,1.53s0.8,0.75,1.36,0.98s1.24,0.34,2.05,0.34c0.64,0,1.21-0.05,1.71-0.16c0.5-0.1,0.93-0.22,1.29-0.35
		c0.36-0.13,0.66-0.25,0.9-0.35c0.23-0.1,0.41-0.16,0.53-0.16c0.07,0,0.13,0.02,0.19,0.05c0.06,0.04,0.1,0.09,0.13,0.16
		c0.03,0.07,0.05,0.17,0.07,0.29c0.02,0.12,0.02,0.28,0.02,0.45c0,0.13-0.01,0.24-0.02,0.33s-0.02,0.18-0.04,0.25
		c-0.02,0.07-0.04,0.14-0.07,0.2s-0.08,0.12-0.13,0.17s-0.22,0.14-0.48,0.27s-0.62,0.25-1.04,0.36c-0.43,0.12-0.92,0.23-1.48,0.32
		c-0.56,0.09-1.16,0.14-1.79,0.14c-1.1,0-2.07-0.15-2.9-0.46s-1.53-0.76-2.09-1.37c-0.57-0.6-0.99-1.36-1.28-2.28
		c-0.29-0.91-0.43-1.98-0.43-3.19c0-1.15,0.15-2.19,0.45-3.1c0.3-0.92,0.73-1.7,1.29-2.34c0.56-0.64,1.24-1.13,2.03-1.47
		c0.79-0.34,1.68-0.51,2.67-0.51c1.05,0,1.95,0.17,2.69,0.51c0.74,0.34,1.35,0.79,1.82,1.36c0.48,0.57,0.83,1.24,1.05,2.01
		c0.22,0.77,0.33,1.59,0.33,2.46V198.14z M455.47,197.41c0.03-1.29-0.26-2.3-0.86-3.04c-0.6-0.73-1.5-1.1-2.69-1.1
		c-0.61,0-1.14,0.11-1.6,0.34c-0.46,0.23-0.84,0.53-1.15,0.91s-0.55,0.82-0.72,1.32c-0.17,0.5-0.26,1.03-0.28,1.57H455.47z"/>
	<path d="M473.21,205.42c0,0.08-0.02,0.15-0.06,0.2c-0.04,0.05-0.1,0.1-0.19,0.14c-0.09,0.04-0.21,0.07-0.37,0.09
		c-0.16,0.02-0.36,0.03-0.6,0.03c-0.25,0-0.45-0.01-0.61-0.03c-0.16-0.02-0.28-0.05-0.37-0.09c-0.09-0.04-0.15-0.09-0.19-0.14
		c-0.04-0.05-0.06-0.12-0.06-0.2v-7.85c0-0.76-0.06-1.38-0.18-1.85s-0.29-0.87-0.52-1.21c-0.23-0.34-0.52-0.6-0.89-0.77
		s-0.78-0.27-1.26-0.27c-0.62,0-1.23,0.22-1.85,0.66c-0.62,0.44-1.26,1.08-1.94,1.92v9.37c0,0.08-0.02,0.15-0.06,0.2
		s-0.1,0.1-0.19,0.14c-0.09,0.04-0.21,0.07-0.37,0.09c-0.16,0.02-0.36,0.03-0.61,0.03c-0.24,0-0.44-0.01-0.6-0.03
		c-0.16-0.02-0.29-0.05-0.38-0.09c-0.09-0.04-0.16-0.09-0.19-0.14c-0.04-0.05-0.05-0.12-0.05-0.2v-13.4c0-0.08,0.02-0.15,0.04-0.2
		s0.09-0.1,0.18-0.15c0.09-0.04,0.2-0.08,0.34-0.09c0.14-0.01,0.32-0.02,0.55-0.02c0.22,0,0.4,0.01,0.54,0.02
		c0.14,0.01,0.26,0.04,0.33,0.09c0.08,0.04,0.14,0.09,0.17,0.15c0.03,0.05,0.05,0.12,0.05,0.2v1.77c0.75-0.84,1.51-1.46,2.26-1.85
		c0.75-0.39,1.51-0.59,2.27-0.59c0.89,0,1.65,0.15,2.26,0.45s1.1,0.71,1.48,1.21c0.38,0.51,0.65,1.1,0.81,1.78
		c0.16,0.68,0.25,1.5,0.25,2.45V205.42z"/>
</g>
<g class="st1">
	<path d="M492.87,197.59c0,0.55-0.1,1.08-0.31,1.58c-0.21,0.5-0.5,0.93-0.87,1.3c-0.37,0.37-0.8,0.65-1.29,0.86
		c-0.49,0.21-1.02,0.31-1.58,0.31c-0.55,0-1.08-0.1-1.58-0.31s-0.93-0.49-1.3-0.85c-0.37-0.37-0.65-0.8-0.85-1.3
		c-0.2-0.5-0.31-1.02-0.31-1.58c0-0.57,0.1-1.1,0.31-1.59s0.5-0.92,0.86-1.29c0.37-0.37,0.8-0.66,1.29-0.87
		c0.5-0.21,1.02-0.31,1.58-0.31c0.55,0,1.08,0.1,1.58,0.31c0.5,0.21,0.93,0.5,1.29,0.86c0.37,0.37,0.65,0.8,0.86,1.29
		C492.77,196.5,492.87,197.02,492.87,197.59z"/>
</g>
<g class="st1">
	<path d="M518.66,205.4c0,0.08-0.02,0.15-0.06,0.21c-0.04,0.06-0.11,0.11-0.21,0.14c-0.1,0.04-0.23,0.06-0.39,0.09
		c-0.16,0.03-0.37,0.04-0.6,0.04c-0.26,0-0.47-0.01-0.62-0.04c-0.16-0.02-0.29-0.05-0.39-0.09c-0.1-0.04-0.17-0.08-0.21-0.14
		c-0.04-0.06-0.06-0.13-0.06-0.21v-8.55h-8.77v8.55c0,0.08-0.02,0.15-0.06,0.21s-0.11,0.11-0.21,0.14s-0.23,0.06-0.39,0.09
		c-0.16,0.03-0.37,0.04-0.62,0.04c-0.24,0-0.44-0.01-0.61-0.04c-0.17-0.02-0.3-0.05-0.4-0.09s-0.17-0.08-0.21-0.14
		s-0.06-0.13-0.06-0.21v-18.49c0-0.08,0.02-0.15,0.06-0.21s0.11-0.11,0.21-0.14c0.1-0.03,0.23-0.06,0.4-0.09
		c0.17-0.02,0.37-0.04,0.61-0.04c0.25,0,0.45,0.01,0.62,0.04s0.3,0.05,0.39,0.09c0.1,0.04,0.17,0.08,0.21,0.14s0.06,0.13,0.06,0.21
		v7.71h8.77v-7.71c0-0.08,0.02-0.15,0.06-0.21c0.04-0.06,0.11-0.11,0.21-0.14c0.1-0.03,0.23-0.06,0.39-0.09s0.37-0.04,0.62-0.04
		c0.24,0,0.44,0.01,0.6,0.04s0.29,0.05,0.39,0.09c0.1,0.04,0.17,0.08,0.21,0.14c0.04,0.06,0.06,0.13,0.06,0.21V205.4z"/>
	<path d="M535.96,198.57c0,1.09-0.14,2.1-0.43,3.01c-0.29,0.92-0.72,1.71-1.29,2.38c-0.57,0.67-1.29,1.18-2.14,1.56
		c-0.86,0.37-1.85,0.56-2.99,0.56c-1.1,0-2.06-0.16-2.88-0.49c-0.82-0.33-1.5-0.8-2.05-1.43c-0.55-0.62-0.95-1.38-1.22-2.28
		c-0.27-0.89-0.4-1.91-0.4-3.04c0-1.09,0.14-2.1,0.42-3.01c0.28-0.92,0.71-1.71,1.28-2.38c0.57-0.66,1.28-1.18,2.14-1.55
		s1.85-0.55,2.99-0.55c1.1,0,2.06,0.16,2.88,0.49c0.82,0.33,1.5,0.8,2.05,1.43c0.55,0.63,0.96,1.38,1.23,2.28
		C535.82,196.44,535.96,197.45,535.96,198.57z M533.41,198.73c0-0.72-0.07-1.41-0.2-2.05s-0.36-1.21-0.67-1.7
		c-0.31-0.49-0.73-0.87-1.26-1.15c-0.53-0.28-1.19-0.42-1.98-0.42c-0.73,0-1.36,0.13-1.89,0.39c-0.53,0.26-0.96,0.62-1.3,1.09
		c-0.34,0.47-0.59,1.03-0.76,1.67c-0.17,0.65-0.25,1.35-0.25,2.11c0,0.73,0.07,1.42,0.2,2.07c0.13,0.65,0.36,1.21,0.68,1.69
		s0.74,0.86,1.27,1.15c0.53,0.28,1.19,0.42,1.98,0.42c0.72,0,1.35-0.13,1.88-0.39c0.53-0.26,0.97-0.62,1.31-1.09
		c0.34-0.47,0.59-1.02,0.75-1.67C533.33,200.22,533.41,199.51,533.41,198.73z"/>
	<path d="M551.11,205.42c0,0.08-0.02,0.15-0.06,0.2c-0.04,0.05-0.1,0.1-0.19,0.14c-0.09,0.04-0.21,0.07-0.37,0.09
		c-0.16,0.02-0.36,0.03-0.6,0.03c-0.25,0-0.45-0.01-0.61-0.03c-0.16-0.02-0.28-0.05-0.37-0.09c-0.09-0.04-0.15-0.09-0.19-0.14
		s-0.06-0.12-0.06-0.2v-7.85c0-0.76-0.06-1.38-0.18-1.85s-0.29-0.87-0.52-1.21c-0.23-0.34-0.52-0.6-0.89-0.77s-0.78-0.27-1.26-0.27
		c-0.62,0-1.23,0.22-1.85,0.66c-0.62,0.44-1.26,1.08-1.94,1.92v9.37c0,0.08-0.02,0.15-0.06,0.2c-0.04,0.05-0.1,0.1-0.19,0.14
		c-0.09,0.04-0.21,0.07-0.37,0.09c-0.16,0.02-0.36,0.03-0.61,0.03c-0.24,0-0.44-0.01-0.59-0.03c-0.16-0.02-0.29-0.05-0.38-0.09
		c-0.09-0.04-0.16-0.09-0.19-0.14c-0.04-0.05-0.05-0.12-0.05-0.2v-19.89c0-0.08,0.02-0.15,0.05-0.21c0.03-0.06,0.1-0.11,0.19-0.15
		c0.09-0.04,0.22-0.07,0.38-0.09c0.16-0.02,0.36-0.03,0.59-0.03c0.25,0,0.45,0.01,0.61,0.03c0.16,0.02,0.28,0.05,0.37,0.09
		c0.09,0.04,0.15,0.09,0.19,0.15c0.04,0.06,0.06,0.13,0.06,0.21v8.02c0.7-0.74,1.41-1.3,2.13-1.66s1.43-0.54,2.16-0.54
		c0.89,0,1.64,0.15,2.25,0.45s1.1,0.71,1.48,1.21c0.38,0.51,0.65,1.1,0.81,1.78s0.25,1.5,0.25,2.46V205.42z"/>
	<path d="M567.03,198.14c0,0.39-0.1,0.66-0.29,0.83s-0.42,0.25-0.67,0.25h-8.82c0,0.75,0.08,1.42,0.22,2.01
		c0.15,0.59,0.4,1.11,0.75,1.53c0.35,0.43,0.8,0.75,1.36,0.98s1.24,0.34,2.05,0.34c0.64,0,1.21-0.05,1.71-0.16
		c0.5-0.1,0.93-0.22,1.29-0.35c0.36-0.13,0.66-0.25,0.9-0.35c0.24-0.1,0.41-0.16,0.53-0.16c0.07,0,0.13,0.02,0.19,0.05
		c0.05,0.04,0.1,0.09,0.13,0.16s0.05,0.17,0.07,0.29s0.02,0.28,0.02,0.45c0,0.13,0,0.24-0.01,0.33s-0.02,0.18-0.04,0.25
		c-0.02,0.07-0.04,0.14-0.08,0.2c-0.03,0.06-0.08,0.12-0.13,0.17s-0.22,0.14-0.48,0.27c-0.27,0.12-0.62,0.25-1.04,0.36
		c-0.43,0.12-0.92,0.23-1.48,0.32c-0.56,0.09-1.16,0.14-1.79,0.14c-1.1,0-2.07-0.15-2.9-0.46c-0.83-0.31-1.53-0.76-2.09-1.37
		c-0.57-0.6-0.99-1.36-1.28-2.28s-0.43-1.98-0.43-3.19c0-1.15,0.15-2.19,0.45-3.1c0.3-0.92,0.73-1.7,1.29-2.34
		c0.56-0.64,1.24-1.13,2.03-1.47c0.79-0.34,1.68-0.51,2.67-0.51c1.05,0,1.95,0.17,2.69,0.51c0.74,0.34,1.35,0.79,1.82,1.36
		c0.48,0.57,0.83,1.24,1.05,2.01c0.22,0.77,0.33,1.59,0.33,2.46V198.14z M564.56,197.41c0.03-1.29-0.26-2.3-0.86-3.04
		c-0.6-0.73-1.5-1.1-2.69-1.1c-0.61,0-1.14,0.11-1.6,0.34s-0.84,0.53-1.15,0.91s-0.55,0.82-0.72,1.32c-0.17,0.5-0.26,1.03-0.28,1.57
		H564.56z"/>
	<path d="M582.3,205.42c0,0.08-0.02,0.15-0.06,0.2s-0.1,0.1-0.19,0.14c-0.09,0.04-0.21,0.07-0.37,0.09
		c-0.16,0.02-0.36,0.03-0.6,0.03c-0.25,0-0.45-0.01-0.61-0.03c-0.16-0.02-0.28-0.05-0.37-0.09c-0.09-0.04-0.15-0.09-0.19-0.14
		c-0.04-0.05-0.06-0.12-0.06-0.2v-7.85c0-0.76-0.06-1.38-0.18-1.85s-0.29-0.87-0.52-1.21c-0.23-0.34-0.52-0.6-0.89-0.77
		s-0.78-0.27-1.26-0.27c-0.62,0-1.23,0.22-1.85,0.66s-1.26,1.08-1.94,1.92v9.37c0,0.08-0.02,0.15-0.06,0.2
		c-0.04,0.05-0.1,0.1-0.19,0.14c-0.09,0.04-0.21,0.07-0.37,0.09c-0.16,0.02-0.36,0.03-0.61,0.03c-0.24,0-0.44-0.01-0.6-0.03
		c-0.16-0.02-0.29-0.05-0.38-0.09c-0.09-0.04-0.16-0.09-0.19-0.14s-0.05-0.12-0.05-0.2v-13.4c0-0.08,0.01-0.15,0.04-0.2
		c0.03-0.05,0.09-0.1,0.18-0.15c0.09-0.04,0.2-0.08,0.34-0.09s0.32-0.02,0.55-0.02c0.22,0,0.4,0.01,0.54,0.02
		c0.14,0.01,0.25,0.04,0.33,0.09c0.08,0.04,0.14,0.09,0.17,0.15s0.05,0.12,0.05,0.2v1.77c0.75-0.84,1.51-1.46,2.26-1.85
		c0.75-0.39,1.51-0.59,2.27-0.59c0.89,0,1.65,0.15,2.26,0.45s1.1,0.71,1.48,1.21c0.38,0.51,0.65,1.1,0.81,1.78
		c0.16,0.68,0.25,1.5,0.25,2.45V205.42z"/>
	<path d="M593.47,204.44c0,0.29-0.02,0.52-0.06,0.68c-0.04,0.17-0.1,0.29-0.18,0.37c-0.08,0.08-0.2,0.15-0.36,0.22
		c-0.16,0.07-0.34,0.13-0.54,0.17s-0.42,0.08-0.65,0.11c-0.23,0.03-0.46,0.04-0.69,0.04c-0.69,0-1.29-0.09-1.79-0.28
		s-0.9-0.46-1.22-0.83c-0.32-0.37-0.55-0.84-0.69-1.41c-0.14-0.57-0.22-1.24-0.22-2.02v-7.83h-1.88c-0.15,0-0.27-0.08-0.36-0.24
		c-0.09-0.16-0.13-0.42-0.13-0.77c0-0.19,0.01-0.35,0.04-0.48c0.02-0.13,0.06-0.24,0.1-0.32s0.09-0.14,0.16-0.18
		s0.14-0.05,0.22-0.05h1.86v-3.19c0-0.07,0.02-0.13,0.05-0.19c0.04-0.06,0.1-0.11,0.19-0.16c0.09-0.04,0.22-0.08,0.38-0.1
		c0.16-0.02,0.36-0.03,0.6-0.03c0.25,0,0.45,0.01,0.61,0.03c0.16,0.02,0.28,0.05,0.37,0.1c0.09,0.04,0.15,0.1,0.19,0.16
		c0.04,0.06,0.06,0.12,0.06,0.19v3.19h3.44c0.08,0,0.15,0.02,0.21,0.05s0.11,0.09,0.16,0.18c0.04,0.08,0.08,0.19,0.1,0.32
		c0.02,0.13,0.03,0.29,0.03,0.48c0,0.36-0.04,0.62-0.13,0.77c-0.09,0.16-0.21,0.24-0.36,0.24h-3.44v7.47c0,0.92,0.14,1.62,0.41,2.09
		c0.27,0.47,0.76,0.71,1.47,0.71c0.23,0,0.43-0.02,0.61-0.07s0.34-0.09,0.48-0.14s0.26-0.1,0.36-0.14c0.1-0.04,0.19-0.07,0.27-0.07
		c0.05,0,0.1,0.01,0.14,0.04c0.04,0.02,0.08,0.07,0.1,0.14s0.05,0.16,0.07,0.28C593.46,204.11,593.47,204.26,593.47,204.44z"/>
	<path d="M606.44,205.43c0,0.12-0.04,0.21-0.12,0.27c-0.08,0.06-0.19,0.1-0.33,0.13c-0.14,0.03-0.34,0.04-0.61,0.04
		c-0.26,0-0.46-0.01-0.62-0.04c-0.15-0.03-0.27-0.07-0.33-0.13s-0.1-0.15-0.1-0.27v-1.34c-0.58,0.62-1.24,1.11-1.96,1.46
		c-0.72,0.35-1.48,0.52-2.29,0.52c-0.7,0-1.34-0.09-1.91-0.28c-0.57-0.18-1.06-0.45-1.46-0.8c-0.4-0.35-0.71-0.77-0.94-1.28
		s-0.33-1.08-0.33-1.73c0-0.75,0.15-1.41,0.46-1.96s0.75-1.02,1.33-1.38c0.58-0.37,1.28-0.64,2.11-0.83s1.77-0.28,2.81-0.28H604
		v-1.04c0-0.52-0.05-0.97-0.16-1.37c-0.11-0.4-0.29-0.73-0.53-0.99c-0.24-0.26-0.56-0.46-0.95-0.59c-0.39-0.13-0.86-0.2-1.43-0.2
		c-0.61,0-1.15,0.07-1.63,0.22s-0.9,0.3-1.27,0.48s-0.67,0.33-0.91,0.48c-0.24,0.14-0.42,0.22-0.54,0.22
		c-0.08,0-0.15-0.02-0.21-0.06c-0.06-0.04-0.11-0.1-0.16-0.18c-0.04-0.08-0.08-0.18-0.1-0.31s-0.03-0.26-0.03-0.41
		c0-0.25,0.02-0.44,0.05-0.59c0.03-0.14,0.12-0.28,0.25-0.41c0.13-0.13,0.37-0.28,0.69-0.45c0.33-0.17,0.71-0.33,1.13-0.48
		c0.43-0.14,0.89-0.26,1.4-0.36c0.51-0.09,1.02-0.14,1.53-0.14c0.96,0,1.78,0.11,2.46,0.33c0.67,0.22,1.22,0.54,1.64,0.96
		s0.72,0.95,0.91,1.57c0.19,0.62,0.28,1.35,0.28,2.19V205.43z M604,199.31h-2.1c-0.67,0-1.26,0.06-1.76,0.17
		c-0.5,0.11-0.91,0.28-1.24,0.51s-0.57,0.49-0.72,0.8c-0.15,0.31-0.23,0.67-0.23,1.08c0,0.7,0.22,1.25,0.66,1.66
		c0.44,0.41,1.06,0.62,1.85,0.62c0.64,0,1.24-0.16,1.79-0.49c0.55-0.33,1.13-0.83,1.73-1.5V199.31z"/>
	<path d="M622.49,205.42c0,0.08-0.02,0.15-0.06,0.2s-0.1,0.1-0.19,0.14c-0.09,0.04-0.21,0.07-0.37,0.09
		c-0.16,0.02-0.36,0.03-0.6,0.03c-0.25,0-0.45-0.01-0.61-0.03c-0.16-0.02-0.28-0.05-0.37-0.09c-0.09-0.04-0.15-0.09-0.19-0.14
		c-0.04-0.05-0.06-0.12-0.06-0.2v-7.85c0-0.76-0.06-1.38-0.18-1.85s-0.29-0.87-0.52-1.21c-0.23-0.34-0.52-0.6-0.89-0.77
		s-0.78-0.27-1.26-0.27c-0.62,0-1.23,0.22-1.85,0.66s-1.26,1.08-1.94,1.92v9.37c0,0.08-0.02,0.15-0.06,0.2
		c-0.04,0.05-0.1,0.1-0.19,0.14c-0.09,0.04-0.21,0.07-0.37,0.09c-0.16,0.02-0.36,0.03-0.61,0.03c-0.24,0-0.44-0.01-0.6-0.03
		c-0.16-0.02-0.29-0.05-0.38-0.09c-0.09-0.04-0.16-0.09-0.19-0.14s-0.05-0.12-0.05-0.2v-13.4c0-0.08,0.01-0.15,0.04-0.2
		c0.03-0.05,0.09-0.1,0.18-0.15c0.09-0.04,0.2-0.08,0.34-0.09s0.32-0.02,0.55-0.02c0.22,0,0.4,0.01,0.54,0.02
		c0.14,0.01,0.25,0.04,0.33,0.09c0.08,0.04,0.14,0.09,0.17,0.15s0.05,0.12,0.05,0.2v1.77c0.75-0.84,1.51-1.46,2.26-1.85
		c0.75-0.39,1.51-0.59,2.27-0.59c0.89,0,1.65,0.15,2.26,0.45s1.1,0.71,1.48,1.21c0.38,0.51,0.65,1.1,0.81,1.78
		c0.16,0.68,0.25,1.5,0.25,2.45V205.42z"/>
	<path d="M638.51,205.42c0,0.08-0.02,0.15-0.06,0.2s-0.1,0.1-0.19,0.14c-0.09,0.04-0.21,0.07-0.37,0.09
		c-0.16,0.02-0.36,0.03-0.6,0.03c-0.25,0-0.45-0.01-0.61-0.03c-0.16-0.02-0.28-0.05-0.37-0.09c-0.09-0.04-0.15-0.09-0.19-0.14
		c-0.04-0.05-0.06-0.12-0.06-0.2v-7.85c0-0.76-0.06-1.38-0.18-1.85s-0.29-0.87-0.52-1.21c-0.23-0.34-0.52-0.6-0.89-0.77
		s-0.78-0.27-1.26-0.27c-0.62,0-1.23,0.22-1.85,0.66s-1.26,1.08-1.94,1.92v9.37c0,0.08-0.02,0.15-0.06,0.2
		c-0.04,0.05-0.1,0.1-0.19,0.14c-0.09,0.04-0.21,0.07-0.37,0.09c-0.16,0.02-0.36,0.03-0.61,0.03c-0.24,0-0.44-0.01-0.6-0.03
		c-0.16-0.02-0.29-0.05-0.38-0.09c-0.09-0.04-0.16-0.09-0.19-0.14s-0.05-0.12-0.05-0.2v-13.4c0-0.08,0.01-0.15,0.04-0.2
		c0.03-0.05,0.09-0.1,0.18-0.15c0.09-0.04,0.2-0.08,0.34-0.09s0.32-0.02,0.55-0.02c0.22,0,0.4,0.01,0.54,0.02
		c0.14,0.01,0.25,0.04,0.33,0.09c0.08,0.04,0.14,0.09,0.17,0.15s0.05,0.12,0.05,0.2v1.77c0.75-0.84,1.51-1.46,2.26-1.85
		c0.75-0.39,1.51-0.59,2.27-0.59c0.89,0,1.65,0.15,2.26,0.45s1.1,0.71,1.48,1.21c0.38,0.51,0.65,1.1,0.81,1.78
		c0.16,0.68,0.25,1.5,0.25,2.45V205.42z"/>
	<path d="M654.42,198.14c0,0.39-0.1,0.66-0.29,0.83s-0.42,0.25-0.67,0.25h-8.82c0,0.75,0.08,1.42,0.22,2.01
		c0.15,0.59,0.4,1.11,0.75,1.53c0.35,0.43,0.8,0.75,1.36,0.98s1.24,0.34,2.05,0.34c0.64,0,1.21-0.05,1.71-0.16
		c0.5-0.1,0.93-0.22,1.29-0.35c0.36-0.13,0.66-0.25,0.9-0.35c0.24-0.1,0.41-0.16,0.53-0.16c0.07,0,0.13,0.02,0.19,0.05
		c0.05,0.04,0.1,0.09,0.13,0.16s0.05,0.17,0.07,0.29s0.02,0.28,0.02,0.45c0,0.13,0,0.24-0.01,0.33s-0.02,0.18-0.04,0.25
		c-0.02,0.07-0.04,0.14-0.08,0.2c-0.03,0.06-0.08,0.12-0.13,0.17s-0.22,0.14-0.48,0.27c-0.27,0.12-0.62,0.25-1.04,0.36
		c-0.43,0.12-0.92,0.23-1.48,0.32c-0.56,0.09-1.16,0.14-1.79,0.14c-1.1,0-2.07-0.15-2.9-0.46c-0.83-0.31-1.53-0.76-2.09-1.37
		c-0.57-0.6-0.99-1.36-1.28-2.28s-0.43-1.98-0.43-3.19c0-1.15,0.15-2.19,0.45-3.1c0.3-0.92,0.73-1.7,1.29-2.34
		c0.56-0.64,1.24-1.13,2.03-1.47c0.79-0.34,1.68-0.51,2.67-0.51c1.05,0,1.95,0.17,2.69,0.51c0.74,0.34,1.35,0.79,1.82,1.36
		c0.48,0.57,0.83,1.24,1.05,2.01c0.22,0.77,0.33,1.59,0.33,2.46V198.14z M651.95,197.41c0.03-1.29-0.26-2.3-0.86-3.04
		c-0.6-0.73-1.5-1.1-2.69-1.1c-0.61,0-1.14,0.11-1.6,0.34s-0.84,0.53-1.15,0.91s-0.55,0.82-0.72,1.32c-0.17,0.5-0.26,1.03-0.28,1.57
		H651.95z"/>
	<path d="M669.7,205.42c0,0.08-0.02,0.15-0.06,0.2c-0.04,0.05-0.1,0.1-0.19,0.14c-0.09,0.04-0.21,0.07-0.37,0.09
		c-0.16,0.02-0.36,0.03-0.6,0.03c-0.25,0-0.45-0.01-0.61-0.03c-0.16-0.02-0.28-0.05-0.37-0.09c-0.09-0.04-0.15-0.09-0.19-0.14
		s-0.06-0.12-0.06-0.2v-7.85c0-0.76-0.06-1.38-0.18-1.85s-0.29-0.87-0.52-1.21c-0.23-0.34-0.52-0.6-0.89-0.77s-0.78-0.27-1.26-0.27
		c-0.62,0-1.23,0.22-1.85,0.66c-0.62,0.44-1.26,1.08-1.94,1.92v9.37c0,0.08-0.02,0.15-0.06,0.2c-0.04,0.05-0.1,0.1-0.19,0.14
		c-0.09,0.04-0.21,0.07-0.37,0.09c-0.16,0.02-0.36,0.03-0.61,0.03c-0.24,0-0.44-0.01-0.59-0.03c-0.16-0.02-0.29-0.05-0.38-0.09
		c-0.09-0.04-0.16-0.09-0.19-0.14c-0.04-0.05-0.05-0.12-0.05-0.2v-13.4c0-0.08,0.02-0.15,0.04-0.2c0.03-0.05,0.09-0.1,0.18-0.15
		c0.09-0.04,0.2-0.08,0.34-0.09c0.14-0.01,0.32-0.02,0.55-0.02c0.22,0,0.4,0.01,0.54,0.02s0.26,0.04,0.33,0.09
		c0.08,0.04,0.14,0.09,0.17,0.15c0.03,0.05,0.05,0.12,0.05,0.2v1.77c0.75-0.84,1.51-1.46,2.26-1.85c0.75-0.39,1.51-0.59,2.27-0.59
		c0.89,0,1.64,0.15,2.25,0.45s1.1,0.71,1.48,1.21c0.38,0.51,0.65,1.1,0.81,1.78s0.25,1.5,0.25,2.45V205.42z"/>
</g>
</svg>
